<mxfile host="app.diagrams.net" modified="2021-05-22T12:16:24.378Z" agent="5.0 (Windows NT 10.0; Win64; x64) AppleWebKit/537.36 (KHTML, like Gecko) Chrome/90.0.4430.212 Safari/537.36" etag="CBW0AppN_b25lqZc3t1b" version="14.7.0" type="github">
  <diagram id="C5RBs43oDa-KdzZeNtuy" name="Page-1">
    <mxGraphModel dx="1673" dy="908" grid="1" gridSize="10" guides="1" tooltips="1" connect="1" arrows="1" fold="1" page="1" pageScale="1" pageWidth="827" pageHeight="1169" math="0" shadow="0">
      <root>
        <mxCell id="WIyWlLk6GJQsqaUBKTNV-0" />
        <mxCell id="WIyWlLk6GJQsqaUBKTNV-1" parent="WIyWlLk6GJQsqaUBKTNV-0" />
        <mxCell id="CHRmbYXMk_RVhMR8-_uH-9" value="" style="rounded=0;whiteSpace=wrap;html=1;fillColor=#FFFFCC;" vertex="1" parent="WIyWlLk6GJQsqaUBKTNV-1">
          <mxGeometry x="1940" y="305" width="362.5" height="580" as="geometry" />
        </mxCell>
        <mxCell id="v0-v943GRlpw8a3xK3n0-346" value="" style="rounded=0;whiteSpace=wrap;html=1;labelBackgroundColor=none;fontColor=#000000;fillColor=#FFFFCC;gradientColor=none;" parent="WIyWlLk6GJQsqaUBKTNV-1" vertex="1">
          <mxGeometry x="1640" y="1570" width="720" height="260" as="geometry" />
        </mxCell>
        <mxCell id="v0-v943GRlpw8a3xK3n0-320" value="" style="rounded=0;whiteSpace=wrap;html=1;labelBackgroundColor=none;fontColor=#000000;fillColor=#FFFFCC;gradientColor=none;" parent="WIyWlLk6GJQsqaUBKTNV-1" vertex="1">
          <mxGeometry x="1183.75" y="3910" width="1106.25" height="470" as="geometry" />
        </mxCell>
        <mxCell id="v0-v943GRlpw8a3xK3n0-281" value="" style="rounded=0;whiteSpace=wrap;html=1;labelBackgroundColor=none;fontColor=#000000;fillColor=#FFFFCC;gradientColor=none;" parent="WIyWlLk6GJQsqaUBKTNV-1" vertex="1">
          <mxGeometry x="610" y="3910" width="550" height="310" as="geometry" />
        </mxCell>
        <mxCell id="v0-v943GRlpw8a3xK3n0-218" value="" style="rounded=0;whiteSpace=wrap;html=1;labelBackgroundColor=none;fontColor=#000000;fillColor=#FFFFCC;gradientColor=none;" parent="WIyWlLk6GJQsqaUBKTNV-1" vertex="1">
          <mxGeometry x="595" y="2668" width="1675" height="1122" as="geometry" />
        </mxCell>
        <mxCell id="v0-v943GRlpw8a3xK3n0-184" value="" style="rounded=0;whiteSpace=wrap;html=1;labelBackgroundColor=none;fontColor=#000000;fillColor=#FFFFCC;gradientColor=none;" parent="WIyWlLk6GJQsqaUBKTNV-1" vertex="1">
          <mxGeometry x="590" y="2070" width="1250" height="570" as="geometry" />
        </mxCell>
        <mxCell id="v0-v943GRlpw8a3xK3n0-118" value="" style="rounded=0;whiteSpace=wrap;html=1;labelBackgroundColor=none;fontColor=#000000;fillColor=#FFFFCC;gradientColor=none;" parent="WIyWlLk6GJQsqaUBKTNV-1" vertex="1">
          <mxGeometry x="570" y="1570" width="1040" height="170" as="geometry" />
        </mxCell>
        <mxCell id="v0-v943GRlpw8a3xK3n0-73" value="" style="rounded=0;whiteSpace=wrap;html=1;fillColor=#FFFFCC;" parent="WIyWlLk6GJQsqaUBKTNV-1" vertex="1">
          <mxGeometry x="325" y="330" width="437.5" height="302.5" as="geometry" />
        </mxCell>
        <mxCell id="v0-v943GRlpw8a3xK3n0-67" value="" style="rounded=0;whiteSpace=wrap;html=1;fillColor=#FFFFCC;" parent="WIyWlLk6GJQsqaUBKTNV-1" vertex="1">
          <mxGeometry x="325" y="670" width="1300" height="360" as="geometry" />
        </mxCell>
        <mxCell id="v0-v943GRlpw8a3xK3n0-1" value="" style="edgeStyle=orthogonalEdgeStyle;rounded=0;orthogonalLoop=1;jettySize=auto;html=1;" parent="WIyWlLk6GJQsqaUBKTNV-1" source="WIyWlLk6GJQsqaUBKTNV-3" target="v0-v943GRlpw8a3xK3n0-0" edge="1">
          <mxGeometry relative="1" as="geometry" />
        </mxCell>
        <mxCell id="WIyWlLk6GJQsqaUBKTNV-3" value="main in StartProgram.java wird ausgeführt" style="rounded=1;whiteSpace=wrap;html=1;fontSize=12;glass=0;strokeWidth=1;shadow=0;" parent="WIyWlLk6GJQsqaUBKTNV-1" vertex="1">
          <mxGeometry x="160" y="70" width="120" height="50" as="geometry" />
        </mxCell>
        <mxCell id="v0-v943GRlpw8a3xK3n0-3" value="" style="edgeStyle=orthogonalEdgeStyle;rounded=0;orthogonalLoop=1;jettySize=auto;html=1;entryX=0.5;entryY=0;entryDx=0;entryDy=0;" parent="WIyWlLk6GJQsqaUBKTNV-1" source="v0-v943GRlpw8a3xK3n0-0" target="v0-v943GRlpw8a3xK3n0-37" edge="1">
          <mxGeometry relative="1" as="geometry">
            <mxPoint x="220" y="280" as="targetPoint" />
          </mxGeometry>
        </mxCell>
        <mxCell id="v0-v943GRlpw8a3xK3n0-0" value="Screenhandler wird erzeugt" style="whiteSpace=wrap;html=1;rounded=1;shadow=0;strokeWidth=1;glass=0;" parent="WIyWlLk6GJQsqaUBKTNV-1" vertex="1">
          <mxGeometry x="160" y="190" width="120" height="50" as="geometry" />
        </mxCell>
        <mxCell id="v0-v943GRlpw8a3xK3n0-10" value="" style="edgeStyle=orthogonalEdgeStyle;rounded=0;orthogonalLoop=1;jettySize=auto;html=1;" parent="WIyWlLk6GJQsqaUBKTNV-1" source="v0-v943GRlpw8a3xK3n0-2" target="v0-v943GRlpw8a3xK3n0-9" edge="1">
          <mxGeometry relative="1" as="geometry" />
        </mxCell>
        <mxCell id="v0-v943GRlpw8a3xK3n0-2" value="Basiseinstellungen werden gesetzt" style="whiteSpace=wrap;html=1;rounded=1;shadow=0;strokeWidth=1;glass=0;" parent="WIyWlLk6GJQsqaUBKTNV-1" vertex="1">
          <mxGeometry x="160" y="427.5" width="120" height="50" as="geometry" />
        </mxCell>
        <mxCell id="v0-v943GRlpw8a3xK3n0-12" value="" style="edgeStyle=orthogonalEdgeStyle;rounded=0;orthogonalLoop=1;jettySize=auto;html=1;" parent="WIyWlLk6GJQsqaUBKTNV-1" source="v0-v943GRlpw8a3xK3n0-9" target="v0-v943GRlpw8a3xK3n0-11" edge="1">
          <mxGeometry relative="1" as="geometry" />
        </mxCell>
        <mxCell id="v0-v943GRlpw8a3xK3n0-9" value="language Variable wird auf deutsch gesetzt" style="whiteSpace=wrap;html=1;rounded=1;shadow=0;strokeWidth=1;glass=0;" parent="WIyWlLk6GJQsqaUBKTNV-1" vertex="1">
          <mxGeometry x="360" y="420" width="130" height="65" as="geometry" />
        </mxCell>
        <mxCell id="v0-v943GRlpw8a3xK3n0-39" value="" style="edgeStyle=orthogonalEdgeStyle;rounded=0;orthogonalLoop=1;jettySize=auto;html=1;" parent="WIyWlLk6GJQsqaUBKTNV-1" source="v0-v943GRlpw8a3xK3n0-11" target="v0-v943GRlpw8a3xK3n0-15" edge="1">
          <mxGeometry relative="1" as="geometry" />
        </mxCell>
        <mxCell id="v0-v943GRlpw8a3xK3n0-11" value=".properties Dateien für Farbe, Schriftart und Bilder wird in jeweiligen Handler geladen" style="whiteSpace=wrap;html=1;rounded=1;shadow=0;strokeWidth=1;glass=0;" parent="WIyWlLk6GJQsqaUBKTNV-1" vertex="1">
          <mxGeometry x="570" y="420" width="130" height="65" as="geometry" />
        </mxCell>
        <mxCell id="v0-v943GRlpw8a3xK3n0-18" value="" style="edgeStyle=orthogonalEdgeStyle;rounded=0;orthogonalLoop=1;jettySize=auto;html=1;" parent="WIyWlLk6GJQsqaUBKTNV-1" source="v0-v943GRlpw8a3xK3n0-15" target="v0-v943GRlpw8a3xK3n0-17" edge="1">
          <mxGeometry relative="1" as="geometry" />
        </mxCell>
        <mxCell id="v0-v943GRlpw8a3xK3n0-15" value="HomescreenView wird geladen und als currentView gesetzt" style="whiteSpace=wrap;html=1;rounded=1;shadow=0;strokeWidth=1;glass=0;" parent="WIyWlLk6GJQsqaUBKTNV-1" vertex="1">
          <mxGeometry x="570" y="540" width="130" height="65" as="geometry" />
        </mxCell>
        <mxCell id="v0-v943GRlpw8a3xK3n0-36" value="" style="edgeStyle=orthogonalEdgeStyle;rounded=0;orthogonalLoop=1;jettySize=auto;html=1;" parent="WIyWlLk6GJQsqaUBKTNV-1" source="v0-v943GRlpw8a3xK3n0-17" target="v0-v943GRlpw8a3xK3n0-35" edge="1">
          <mxGeometry relative="1" as="geometry">
            <Array as="points">
              <mxPoint x="323" y="573" />
              <mxPoint x="215" y="573" />
            </Array>
          </mxGeometry>
        </mxCell>
        <mxCell id="v0-v943GRlpw8a3xK3n0-17" value="BlankView wird geladen und als previousView gesetzt" style="whiteSpace=wrap;html=1;rounded=1;shadow=0;strokeWidth=1;glass=0;" parent="WIyWlLk6GJQsqaUBKTNV-1" vertex="1">
          <mxGeometry x="365" y="540" width="130" height="65" as="geometry" />
        </mxCell>
        <mxCell id="v0-v943GRlpw8a3xK3n0-34" value="" style="edgeStyle=orthogonalEdgeStyle;rounded=0;orthogonalLoop=1;jettySize=auto;html=1;" parent="WIyWlLk6GJQsqaUBKTNV-1" source="v0-v943GRlpw8a3xK3n0-27" target="v0-v943GRlpw8a3xK3n0-33" edge="1">
          <mxGeometry relative="1" as="geometry" />
        </mxCell>
        <mxCell id="v0-v943GRlpw8a3xK3n0-46" value="" style="edgeStyle=orthogonalEdgeStyle;rounded=0;orthogonalLoop=1;jettySize=auto;html=1;exitX=0.5;exitY=1;exitDx=0;exitDy=0;" parent="WIyWlLk6GJQsqaUBKTNV-1" source="v0-v943GRlpw8a3xK3n0-33" target="v0-v943GRlpw8a3xK3n0-45" edge="1">
          <mxGeometry relative="1" as="geometry">
            <Array as="points">
              <mxPoint x="975" y="910" />
              <mxPoint x="975" y="910" />
            </Array>
          </mxGeometry>
        </mxCell>
        <mxCell id="v0-v943GRlpw8a3xK3n0-27" value="I18nHandler wird generiert" style="whiteSpace=wrap;html=1;rounded=1;shadow=0;strokeWidth=1;glass=0;" parent="WIyWlLk6GJQsqaUBKTNV-1" vertex="1">
          <mxGeometry x="740" y="815" width="130" height="65" as="geometry" />
        </mxCell>
        <mxCell id="v0-v943GRlpw8a3xK3n0-55" value="" style="edgeStyle=orthogonalEdgeStyle;rounded=0;orthogonalLoop=1;jettySize=auto;html=1;endArrow=classic;endFill=1;" parent="WIyWlLk6GJQsqaUBKTNV-1" source="v0-v943GRlpw8a3xK3n0-33" target="v0-v943GRlpw8a3xK3n0-54" edge="1">
          <mxGeometry relative="1" as="geometry" />
        </mxCell>
        <mxCell id="v0-v943GRlpw8a3xK3n0-56" value="Nein" style="edgeLabel;html=1;align=center;verticalAlign=middle;resizable=0;points=[];labelBackgroundColor=none;" parent="v0-v943GRlpw8a3xK3n0-55" vertex="1" connectable="0">
          <mxGeometry x="-0.1975" y="1" relative="1" as="geometry">
            <mxPoint x="3" y="14" as="offset" />
          </mxGeometry>
        </mxCell>
        <mxCell id="v0-v943GRlpw8a3xK3n0-33" value="&lt;font style=&quot;font-size: 9px&quot;&gt;Resource kann geladen werden?&lt;/font&gt;" style="rhombus;whiteSpace=wrap;html=1;" parent="WIyWlLk6GJQsqaUBKTNV-1" vertex="1">
          <mxGeometry x="930" y="802.5" width="90" height="90" as="geometry" />
        </mxCell>
        <mxCell id="v0-v943GRlpw8a3xK3n0-41" value="" style="edgeStyle=orthogonalEdgeStyle;rounded=0;orthogonalLoop=1;jettySize=auto;html=1;" parent="WIyWlLk6GJQsqaUBKTNV-1" source="v0-v943GRlpw8a3xK3n0-35" target="v0-v943GRlpw8a3xK3n0-40" edge="1">
          <mxGeometry relative="1" as="geometry">
            <Array as="points">
              <mxPoint x="220" y="760" />
              <mxPoint x="410" y="760" />
            </Array>
          </mxGeometry>
        </mxCell>
        <mxCell id="v0-v943GRlpw8a3xK3n0-35" value="HomescreenView wird in WindowFrame geladen" style="whiteSpace=wrap;html=1;rounded=1;shadow=0;strokeWidth=1;glass=0;" parent="WIyWlLk6GJQsqaUBKTNV-1" vertex="1">
          <mxGeometry x="150" y="607.5" width="130" height="65" as="geometry" />
        </mxCell>
        <mxCell id="v0-v943GRlpw8a3xK3n0-38" value="" style="edgeStyle=orthogonalEdgeStyle;rounded=0;orthogonalLoop=1;jettySize=auto;html=1;" parent="WIyWlLk6GJQsqaUBKTNV-1" source="v0-v943GRlpw8a3xK3n0-37" target="v0-v943GRlpw8a3xK3n0-2" edge="1">
          <mxGeometry relative="1" as="geometry" />
        </mxCell>
        <mxCell id="v0-v943GRlpw8a3xK3n0-37" value="WindowFrame wird geladen" style="whiteSpace=wrap;html=1;rounded=1;shadow=0;strokeWidth=1;glass=0;" parent="WIyWlLk6GJQsqaUBKTNV-1" vertex="1">
          <mxGeometry x="155" y="305" width="130" height="65" as="geometry" />
        </mxCell>
        <mxCell id="v0-v943GRlpw8a3xK3n0-43" value="" style="edgeStyle=orthogonalEdgeStyle;rounded=0;orthogonalLoop=1;jettySize=auto;html=1;" parent="WIyWlLk6GJQsqaUBKTNV-1" source="v0-v943GRlpw8a3xK3n0-40" target="v0-v943GRlpw8a3xK3n0-42" edge="1">
          <mxGeometry relative="1" as="geometry" />
        </mxCell>
        <mxCell id="v0-v943GRlpw8a3xK3n0-40" value="WindowFrame wird geleert und mit neuer View geladen" style="whiteSpace=wrap;html=1;rounded=1;shadow=0;strokeWidth=1;glass=0;" parent="WIyWlLk6GJQsqaUBKTNV-1" vertex="1">
          <mxGeometry x="365" y="815" width="130" height="65" as="geometry" />
        </mxCell>
        <mxCell id="v0-v943GRlpw8a3xK3n0-44" value="" style="edgeStyle=orthogonalEdgeStyle;rounded=0;orthogonalLoop=1;jettySize=auto;html=1;" parent="WIyWlLk6GJQsqaUBKTNV-1" source="v0-v943GRlpw8a3xK3n0-42" target="v0-v943GRlpw8a3xK3n0-27" edge="1">
          <mxGeometry relative="1" as="geometry" />
        </mxCell>
        <mxCell id="v0-v943GRlpw8a3xK3n0-42" value="loadSelf Methode der View wird ausgeführt" style="whiteSpace=wrap;html=1;rounded=1;shadow=0;strokeWidth=1;glass=0;" parent="WIyWlLk6GJQsqaUBKTNV-1" vertex="1">
          <mxGeometry x="570" y="815" width="130" height="65" as="geometry" />
        </mxCell>
        <mxCell id="v0-v943GRlpw8a3xK3n0-51" value="" style="edgeStyle=orthogonalEdgeStyle;rounded=0;orthogonalLoop=1;jettySize=auto;html=1;endArrow=classic;endFill=1;" parent="WIyWlLk6GJQsqaUBKTNV-1" source="v0-v943GRlpw8a3xK3n0-45" target="v0-v943GRlpw8a3xK3n0-50" edge="1">
          <mxGeometry relative="1" as="geometry" />
        </mxCell>
        <mxCell id="v0-v943GRlpw8a3xK3n0-45" value="alle UtilityHandler werden aus dem Screenhandler als Klassenvariable gesetzt" style="whiteSpace=wrap;html=1;rounded=1;shadow=0;strokeWidth=1;glass=0;" parent="WIyWlLk6GJQsqaUBKTNV-1" vertex="1">
          <mxGeometry x="910" y="940" width="130" height="65" as="geometry" />
        </mxCell>
        <mxCell id="v0-v943GRlpw8a3xK3n0-47" value="Ja" style="text;html=1;align=center;verticalAlign=middle;resizable=0;points=[];autosize=1;strokeColor=none;" parent="WIyWlLk6GJQsqaUBKTNV-1" vertex="1">
          <mxGeometry x="980" y="900" width="30" height="20" as="geometry" />
        </mxCell>
        <mxCell id="v0-v943GRlpw8a3xK3n0-49" value="" style="edgeStyle=orthogonalEdgeStyle;rounded=0;orthogonalLoop=1;jettySize=auto;html=1;dashed=1;dashPattern=1 4;endArrow=none;endFill=0;" parent="WIyWlLk6GJQsqaUBKTNV-1" source="v0-v943GRlpw8a3xK3n0-48" target="v0-v943GRlpw8a3xK3n0-45" edge="1">
          <mxGeometry relative="1" as="geometry" />
        </mxCell>
        <mxCell id="v0-v943GRlpw8a3xK3n0-48" value="&lt;div&gt;&lt;u style=&quot;font-size: 6px&quot;&gt;UtilityHandler&lt;/u&gt;&lt;span style=&quot;font-size: 6px&quot;&gt;:&lt;/span&gt;&lt;/div&gt;&lt;font style=&quot;font-size: 6px&quot;&gt;- ColorHandler&lt;br&gt;- FontHandler&lt;br&gt;- ImageHandler&lt;/font&gt;" style="text;html=1;strokeColor=none;fillColor=none;align=left;verticalAlign=middle;whiteSpace=wrap;rounded=0;" parent="WIyWlLk6GJQsqaUBKTNV-1" vertex="1">
          <mxGeometry x="1075" y="942.5" width="140" height="60" as="geometry" />
        </mxCell>
        <mxCell id="v0-v943GRlpw8a3xK3n0-53" value="" style="edgeStyle=orthogonalEdgeStyle;rounded=0;orthogonalLoop=1;jettySize=auto;html=1;endArrow=classic;endFill=1;" parent="WIyWlLk6GJQsqaUBKTNV-1" source="v0-v943GRlpw8a3xK3n0-50" target="v0-v943GRlpw8a3xK3n0-52" edge="1">
          <mxGeometry relative="1" as="geometry" />
        </mxCell>
        <mxCell id="v0-v943GRlpw8a3xK3n0-50" value="drawItems Methode der View wird ausgeführt" style="whiteSpace=wrap;html=1;rounded=1;shadow=0;strokeWidth=1;glass=0;" parent="WIyWlLk6GJQsqaUBKTNV-1" vertex="1">
          <mxGeometry x="740" y="940" width="130" height="65" as="geometry" />
        </mxCell>
        <mxCell id="v0-v943GRlpw8a3xK3n0-64" value="" style="edgeStyle=orthogonalEdgeStyle;rounded=0;orthogonalLoop=1;jettySize=auto;html=1;endArrow=classic;endFill=1;" parent="WIyWlLk6GJQsqaUBKTNV-1" source="v0-v943GRlpw8a3xK3n0-52" target="v0-v943GRlpw8a3xK3n0-63" edge="1">
          <mxGeometry relative="1" as="geometry" />
        </mxCell>
        <mxCell id="v0-v943GRlpw8a3xK3n0-52" value="drawItems Methode der View wird ausgeführt" style="whiteSpace=wrap;html=1;rounded=1;shadow=0;strokeWidth=1;glass=0;" parent="WIyWlLk6GJQsqaUBKTNV-1" vertex="1">
          <mxGeometry x="570" y="940" width="130" height="65" as="geometry" />
        </mxCell>
        <mxCell id="v0-v943GRlpw8a3xK3n0-58" value="" style="edgeStyle=orthogonalEdgeStyle;rounded=0;orthogonalLoop=1;jettySize=auto;html=1;endArrow=classic;endFill=1;" parent="WIyWlLk6GJQsqaUBKTNV-1" source="v0-v943GRlpw8a3xK3n0-54" target="v0-v943GRlpw8a3xK3n0-57" edge="1">
          <mxGeometry relative="1" as="geometry" />
        </mxCell>
        <mxCell id="v0-v943GRlpw8a3xK3n0-54" value="InterruptDrawException wird geworfen" style="whiteSpace=wrap;html=1;rounded=1;shadow=0;strokeWidth=1;glass=0;" parent="WIyWlLk6GJQsqaUBKTNV-1" vertex="1">
          <mxGeometry x="1075" y="815" width="130" height="65" as="geometry" />
        </mxCell>
        <mxCell id="v0-v943GRlpw8a3xK3n0-60" value="" style="edgeStyle=orthogonalEdgeStyle;rounded=0;orthogonalLoop=1;jettySize=auto;html=1;endArrow=classic;endFill=1;" parent="WIyWlLk6GJQsqaUBKTNV-1" source="v0-v943GRlpw8a3xK3n0-57" target="v0-v943GRlpw8a3xK3n0-59" edge="1">
          <mxGeometry relative="1" as="geometry" />
        </mxCell>
        <mxCell id="v0-v943GRlpw8a3xK3n0-57" value="Laden der currentView wird unterbrochen" style="whiteSpace=wrap;html=1;rounded=1;shadow=0;strokeWidth=1;glass=0;" parent="WIyWlLk6GJQsqaUBKTNV-1" vertex="1">
          <mxGeometry x="1285" y="815" width="130" height="65" as="geometry" />
        </mxCell>
        <mxCell id="v0-v943GRlpw8a3xK3n0-69" value="" style="edgeStyle=orthogonalEdgeStyle;rounded=0;orthogonalLoop=1;jettySize=auto;html=1;endArrow=classic;endFill=1;entryX=0.5;entryY=0;entryDx=0;entryDy=0;" parent="WIyWlLk6GJQsqaUBKTNV-1" source="v0-v943GRlpw8a3xK3n0-59" target="v0-v943GRlpw8a3xK3n0-40" edge="1">
          <mxGeometry relative="1" as="geometry">
            <mxPoint x="1205" y="762.5" as="targetPoint" />
            <Array as="points">
              <mxPoint x="430" y="760" />
            </Array>
          </mxGeometry>
        </mxCell>
        <mxCell id="v0-v943GRlpw8a3xK3n0-59" value="previousView wird geladen" style="whiteSpace=wrap;html=1;rounded=1;shadow=0;strokeWidth=1;glass=0;" parent="WIyWlLk6GJQsqaUBKTNV-1" vertex="1">
          <mxGeometry x="1285" y="730" width="130" height="65" as="geometry" />
        </mxCell>
        <mxCell id="v0-v943GRlpw8a3xK3n0-62" value="" style="edgeStyle=orthogonalEdgeStyle;rounded=0;orthogonalLoop=1;jettySize=auto;html=1;endArrow=none;endFill=0;dashed=1;dashPattern=1 4;" parent="WIyWlLk6GJQsqaUBKTNV-1" source="v0-v943GRlpw8a3xK3n0-61" target="v0-v943GRlpw8a3xK3n0-59" edge="1">
          <mxGeometry relative="1" as="geometry" />
        </mxCell>
        <mxCell id="v0-v943GRlpw8a3xK3n0-61" value="&lt;font style=&quot;font-size: 6px&quot;&gt;Die previousView wurde entweder schon erfolgreich geladen oder ist BlankView, welche keine Fehler aufwerfen kann&lt;/font&gt;" style="text;html=1;strokeColor=none;fillColor=none;align=center;verticalAlign=middle;whiteSpace=wrap;rounded=0;" parent="WIyWlLk6GJQsqaUBKTNV-1" vertex="1">
          <mxGeometry x="1460" y="736" width="120" height="53" as="geometry" />
        </mxCell>
        <mxCell id="v0-v943GRlpw8a3xK3n0-71" value="" style="edgeStyle=orthogonalEdgeStyle;rounded=0;orthogonalLoop=1;jettySize=auto;html=1;endArrow=classic;endFill=1;" parent="WIyWlLk6GJQsqaUBKTNV-1" source="v0-v943GRlpw8a3xK3n0-63" target="v0-v943GRlpw8a3xK3n0-70" edge="1">
          <mxGeometry relative="1" as="geometry" />
        </mxCell>
        <mxCell id="v0-v943GRlpw8a3xK3n0-63" value="previousView wird mit currentView belegt; currentView mit der neu geladenen View" style="whiteSpace=wrap;html=1;rounded=1;shadow=0;strokeWidth=1;glass=0;" parent="WIyWlLk6GJQsqaUBKTNV-1" vertex="1">
          <mxGeometry x="370" y="940" width="130" height="65" as="geometry" />
        </mxCell>
        <mxCell id="v0-v943GRlpw8a3xK3n0-86" value="" style="edgeStyle=orthogonalEdgeStyle;rounded=0;orthogonalLoop=1;jettySize=auto;html=1;endArrow=classic;endFill=1;" parent="WIyWlLk6GJQsqaUBKTNV-1" source="v0-v943GRlpw8a3xK3n0-70" target="v0-v943GRlpw8a3xK3n0-85" edge="1">
          <mxGeometry relative="1" as="geometry" />
        </mxCell>
        <mxCell id="v0-v943GRlpw8a3xK3n0-70" value="Menübutton im Header wird gedrückt" style="whiteSpace=wrap;html=1;rounded=1;shadow=0;strokeWidth=1;glass=0;" parent="WIyWlLk6GJQsqaUBKTNV-1" vertex="1">
          <mxGeometry x="165" y="942.5" width="120" height="60" as="geometry" />
        </mxCell>
        <mxCell id="v0-v943GRlpw8a3xK3n0-72" value="&lt;font style=&quot;font-size: 21px&quot;&gt;&lt;u&gt;Wechseln der View&amp;nbsp;&lt;/u&gt;&lt;/font&gt;" style="text;html=1;strokeColor=none;fillColor=none;align=center;verticalAlign=middle;whiteSpace=wrap;rounded=0;" parent="WIyWlLk6GJQsqaUBKTNV-1" vertex="1">
          <mxGeometry x="332.5" y="680" width="205" height="20" as="geometry" />
        </mxCell>
        <mxCell id="v0-v943GRlpw8a3xK3n0-74" value="&lt;font style=&quot;font-size: 21px&quot;&gt;&lt;u&gt;Initiales Laden des Programms&lt;/u&gt;&lt;/font&gt;" style="text;html=1;strokeColor=none;fillColor=none;align=center;verticalAlign=middle;whiteSpace=wrap;rounded=0;" parent="WIyWlLk6GJQsqaUBKTNV-1" vertex="1">
          <mxGeometry x="360" y="360" width="310" height="20" as="geometry" />
        </mxCell>
        <mxCell id="v0-v943GRlpw8a3xK3n0-89" value="" style="edgeStyle=orthogonalEdgeStyle;rounded=0;orthogonalLoop=1;jettySize=auto;html=1;fontColor=#000000;endArrow=classic;endFill=1;" parent="WIyWlLk6GJQsqaUBKTNV-1" source="v0-v943GRlpw8a3xK3n0-85" target="v0-v943GRlpw8a3xK3n0-88" edge="1">
          <mxGeometry relative="1" as="geometry">
            <Array as="points">
              <mxPoint x="225" y="1180" />
              <mxPoint x="2910" y="1180" />
            </Array>
          </mxGeometry>
        </mxCell>
        <mxCell id="v0-v943GRlpw8a3xK3n0-91" value="" style="edgeStyle=orthogonalEdgeStyle;rounded=0;orthogonalLoop=1;jettySize=auto;html=1;fontColor=#000000;endArrow=classic;endFill=1;" parent="WIyWlLk6GJQsqaUBKTNV-1" source="v0-v943GRlpw8a3xK3n0-85" target="v0-v943GRlpw8a3xK3n0-90" edge="1">
          <mxGeometry relative="1" as="geometry">
            <Array as="points">
              <mxPoint x="225" y="1180" />
              <mxPoint x="730" y="1180" />
            </Array>
          </mxGeometry>
        </mxCell>
        <mxCell id="v0-v943GRlpw8a3xK3n0-93" value="" style="edgeStyle=orthogonalEdgeStyle;rounded=0;orthogonalLoop=1;jettySize=auto;html=1;fontColor=#000000;endArrow=classic;endFill=1;" parent="WIyWlLk6GJQsqaUBKTNV-1" source="v0-v943GRlpw8a3xK3n0-85" target="v0-v943GRlpw8a3xK3n0-92" edge="1">
          <mxGeometry relative="1" as="geometry">
            <Array as="points">
              <mxPoint x="225" y="1180" />
              <mxPoint x="470" y="1180" />
            </Array>
          </mxGeometry>
        </mxCell>
        <mxCell id="v0-v943GRlpw8a3xK3n0-95" value="" style="edgeStyle=orthogonalEdgeStyle;rounded=0;orthogonalLoop=1;jettySize=auto;html=1;fontColor=#000000;endArrow=classic;endFill=1;" parent="WIyWlLk6GJQsqaUBKTNV-1" source="v0-v943GRlpw8a3xK3n0-85" target="v0-v943GRlpw8a3xK3n0-94" edge="1">
          <mxGeometry relative="1" as="geometry" />
        </mxCell>
        <mxCell id="v0-v943GRlpw8a3xK3n0-85" value="Hinterlegte View wird geladen&lt;br&gt;(siehe &quot;Wechseln der View&quot;)" style="whiteSpace=wrap;html=1;rounded=1;shadow=0;strokeWidth=1;glass=0;" parent="WIyWlLk6GJQsqaUBKTNV-1" vertex="1">
          <mxGeometry x="165" y="1082.5" width="120" height="60" as="geometry" />
        </mxCell>
        <mxCell id="v0-v943GRlpw8a3xK3n0-353" value="" style="edgeStyle=orthogonalEdgeStyle;rounded=0;orthogonalLoop=1;jettySize=auto;html=1;fontColor=#000000;endArrow=classic;endFill=1;" parent="WIyWlLk6GJQsqaUBKTNV-1" source="v0-v943GRlpw8a3xK3n0-88" target="v0-v943GRlpw8a3xK3n0-352" edge="1">
          <mxGeometry relative="1" as="geometry" />
        </mxCell>
        <mxCell id="v0-v943GRlpw8a3xK3n0-88" value="View: TokenInspectorView" style="whiteSpace=wrap;html=1;rounded=1;shadow=0;strokeWidth=1;glass=0;" parent="WIyWlLk6GJQsqaUBKTNV-1" vertex="1">
          <mxGeometry x="2850" y="1230" width="120" height="60" as="geometry" />
        </mxCell>
        <mxCell id="v0-v943GRlpw8a3xK3n0-101" value="" style="edgeStyle=orthogonalEdgeStyle;rounded=0;orthogonalLoop=1;jettySize=auto;html=1;fontColor=#000000;endArrow=classic;endFill=1;" parent="WIyWlLk6GJQsqaUBKTNV-1" source="v0-v943GRlpw8a3xK3n0-90" target="v0-v943GRlpw8a3xK3n0-100" edge="1">
          <mxGeometry relative="1" as="geometry" />
        </mxCell>
        <mxCell id="v0-v943GRlpw8a3xK3n0-90" value="View: ContactView" style="whiteSpace=wrap;html=1;rounded=1;shadow=0;strokeWidth=1;glass=0;" parent="WIyWlLk6GJQsqaUBKTNV-1" vertex="1">
          <mxGeometry x="670" y="1230" width="120" height="60" as="geometry" />
        </mxCell>
        <mxCell id="v0-v943GRlpw8a3xK3n0-99" value="" style="edgeStyle=orthogonalEdgeStyle;rounded=0;orthogonalLoop=1;jettySize=auto;html=1;fontColor=#000000;endArrow=classic;endFill=1;" parent="WIyWlLk6GJQsqaUBKTNV-1" source="v0-v943GRlpw8a3xK3n0-92" target="v0-v943GRlpw8a3xK3n0-98" edge="1">
          <mxGeometry relative="1" as="geometry" />
        </mxCell>
        <mxCell id="v0-v943GRlpw8a3xK3n0-92" value="View: ChangeOfAddressInitial" style="whiteSpace=wrap;html=1;rounded=1;shadow=0;strokeWidth=1;glass=0;" parent="WIyWlLk6GJQsqaUBKTNV-1" vertex="1">
          <mxGeometry x="405" y="1222.5" width="130" height="60" as="geometry" />
        </mxCell>
        <mxCell id="v0-v943GRlpw8a3xK3n0-97" value="" style="edgeStyle=orthogonalEdgeStyle;rounded=0;orthogonalLoop=1;jettySize=auto;html=1;fontColor=#000000;endArrow=classic;endFill=1;" parent="WIyWlLk6GJQsqaUBKTNV-1" source="v0-v943GRlpw8a3xK3n0-94" target="v0-v943GRlpw8a3xK3n0-96" edge="1">
          <mxGeometry relative="1" as="geometry" />
        </mxCell>
        <mxCell id="v0-v943GRlpw8a3xK3n0-94" value="View: CurrentEventsView" style="whiteSpace=wrap;html=1;rounded=1;shadow=0;strokeWidth=1;glass=0;" parent="WIyWlLk6GJQsqaUBKTNV-1" vertex="1">
          <mxGeometry x="165" y="1222.5" width="120" height="60" as="geometry" />
        </mxCell>
        <mxCell id="v0-v943GRlpw8a3xK3n0-96" value="Aktuelle Nachrichten werden angezeigt" style="whiteSpace=wrap;html=1;rounded=1;shadow=0;strokeWidth=1;glass=0;" parent="WIyWlLk6GJQsqaUBKTNV-1" vertex="1">
          <mxGeometry x="165" y="1362.5" width="120" height="60" as="geometry" />
        </mxCell>
        <mxCell id="v0-v943GRlpw8a3xK3n0-103" value="" style="edgeStyle=orthogonalEdgeStyle;rounded=0;orthogonalLoop=1;jettySize=auto;html=1;fontColor=#000000;endArrow=classic;endFill=1;" parent="WIyWlLk6GJQsqaUBKTNV-1" source="v0-v943GRlpw8a3xK3n0-98" target="v0-v943GRlpw8a3xK3n0-102" edge="1">
          <mxGeometry relative="1" as="geometry" />
        </mxCell>
        <mxCell id="v0-v943GRlpw8a3xK3n0-98" value="Text zur Beschreibung des Ummeldetools wird angezeigt" style="whiteSpace=wrap;html=1;rounded=1;shadow=0;strokeWidth=1;glass=0;" parent="WIyWlLk6GJQsqaUBKTNV-1" vertex="1">
          <mxGeometry x="410" y="1362.5" width="120" height="60" as="geometry" />
        </mxCell>
        <mxCell id="v0-v943GRlpw8a3xK3n0-100" value="Kontaktinformationen werden angezeigt" style="whiteSpace=wrap;html=1;rounded=1;shadow=0;strokeWidth=1;glass=0;" parent="WIyWlLk6GJQsqaUBKTNV-1" vertex="1">
          <mxGeometry x="670" y="1362.5" width="120" height="60" as="geometry" />
        </mxCell>
        <mxCell id="v0-v943GRlpw8a3xK3n0-105" value="" style="edgeStyle=orthogonalEdgeStyle;rounded=0;orthogonalLoop=1;jettySize=auto;html=1;fontColor=#000000;endArrow=classic;endFill=1;" parent="WIyWlLk6GJQsqaUBKTNV-1" source="v0-v943GRlpw8a3xK3n0-102" target="v0-v943GRlpw8a3xK3n0-104" edge="1">
          <mxGeometry relative="1" as="geometry" />
        </mxCell>
        <mxCell id="v0-v943GRlpw8a3xK3n0-102" value="startProcess&amp;nbsp;Button wird gedrückt" style="whiteSpace=wrap;html=1;rounded=1;shadow=0;strokeWidth=1;glass=0;" parent="WIyWlLk6GJQsqaUBKTNV-1" vertex="1">
          <mxGeometry x="410" y="1502.5" width="120" height="60" as="geometry" />
        </mxCell>
        <mxCell id="v0-v943GRlpw8a3xK3n0-107" value="" style="edgeStyle=orthogonalEdgeStyle;rounded=0;orthogonalLoop=1;jettySize=auto;html=1;fontColor=#000000;endArrow=classic;endFill=1;" parent="WIyWlLk6GJQsqaUBKTNV-1" source="v0-v943GRlpw8a3xK3n0-104" target="v0-v943GRlpw8a3xK3n0-106" edge="1">
          <mxGeometry relative="1" as="geometry" />
        </mxCell>
        <mxCell id="v0-v943GRlpw8a3xK3n0-104" value="ChangeOfAddressQA wird geladen (siehe &quot;Wechseln der View&quot;)" style="whiteSpace=wrap;html=1;rounded=1;shadow=0;strokeWidth=1;glass=0;" parent="WIyWlLk6GJQsqaUBKTNV-1" vertex="1">
          <mxGeometry x="410" y="1642.5" width="120" height="60" as="geometry" />
        </mxCell>
        <mxCell id="v0-v943GRlpw8a3xK3n0-109" value="" style="edgeStyle=orthogonalEdgeStyle;rounded=0;orthogonalLoop=1;jettySize=auto;html=1;fontColor=#000000;endArrow=classic;endFill=1;" parent="WIyWlLk6GJQsqaUBKTNV-1" source="v0-v943GRlpw8a3xK3n0-106" target="v0-v943GRlpw8a3xK3n0-108" edge="1">
          <mxGeometry relative="1" as="geometry" />
        </mxCell>
        <mxCell id="v0-v943GRlpw8a3xK3n0-106" value="QALabel wird mit &quot;ChangeOfAddressQuestions.json&quot; und einer ProgrssBar geladen" style="whiteSpace=wrap;html=1;rounded=1;shadow=0;strokeWidth=1;glass=0;" parent="WIyWlLk6GJQsqaUBKTNV-1" vertex="1">
          <mxGeometry x="630" y="1642.5" width="190" height="60" as="geometry" />
        </mxCell>
        <mxCell id="v0-v943GRlpw8a3xK3n0-111" value="" style="edgeStyle=orthogonalEdgeStyle;rounded=0;orthogonalLoop=1;jettySize=auto;html=1;fontColor=#000000;endArrow=classic;endFill=1;" parent="WIyWlLk6GJQsqaUBKTNV-1" source="v0-v943GRlpw8a3xK3n0-108" target="v0-v943GRlpw8a3xK3n0-110" edge="1">
          <mxGeometry relative="1" as="geometry" />
        </mxCell>
        <mxCell id="v0-v943GRlpw8a3xK3n0-108" value="JSON Datei wird in JSON-Objekt wholeJSON geladen" style="whiteSpace=wrap;html=1;rounded=1;shadow=0;strokeWidth=1;glass=0;" parent="WIyWlLk6GJQsqaUBKTNV-1" vertex="1">
          <mxGeometry x="890" y="1642.5" width="190" height="60" as="geometry" />
        </mxCell>
        <mxCell id="v0-v943GRlpw8a3xK3n0-115" value="" style="edgeStyle=orthogonalEdgeStyle;rounded=0;orthogonalLoop=1;jettySize=auto;html=1;fontColor=#000000;endArrow=classic;endFill=1;" parent="WIyWlLk6GJQsqaUBKTNV-1" source="v0-v943GRlpw8a3xK3n0-110" target="v0-v943GRlpw8a3xK3n0-114" edge="1">
          <mxGeometry relative="1" as="geometry" />
        </mxCell>
        <mxCell id="v0-v943GRlpw8a3xK3n0-110" value="Fragen im JSON-Objekt werden in questionsObj geladen" style="whiteSpace=wrap;html=1;rounded=1;shadow=0;strokeWidth=1;glass=0;" parent="WIyWlLk6GJQsqaUBKTNV-1" vertex="1">
          <mxGeometry x="1146" y="1642.5" width="190" height="60" as="geometry" />
        </mxCell>
        <mxCell id="v0-v943GRlpw8a3xK3n0-331" value="" style="edgeStyle=orthogonalEdgeStyle;rounded=0;orthogonalLoop=1;jettySize=auto;html=1;fontColor=#000000;endArrow=classic;endFill=1;" parent="WIyWlLk6GJQsqaUBKTNV-1" source="v0-v943GRlpw8a3xK3n0-114" target="v0-v943GRlpw8a3xK3n0-330" edge="1">
          <mxGeometry relative="1" as="geometry" />
        </mxCell>
        <mxCell id="v0-v943GRlpw8a3xK3n0-114" value="baseModel wird erstellt, welches das ChangeOfAddress-Model als JSON ohne Werte repräsentiert" style="whiteSpace=wrap;html=1;rounded=1;shadow=0;strokeWidth=1;glass=0;" parent="WIyWlLk6GJQsqaUBKTNV-1" vertex="1">
          <mxGeometry x="1390" y="1642.5" width="190" height="60" as="geometry" />
        </mxCell>
        <mxCell id="v0-v943GRlpw8a3xK3n0-329" value="" style="edgeStyle=orthogonalEdgeStyle;rounded=0;orthogonalLoop=1;jettySize=auto;html=1;fontColor=#000000;endArrow=classic;endFill=1;entryX=0.5;entryY=0;entryDx=0;entryDy=0;" parent="WIyWlLk6GJQsqaUBKTNV-1" source="v0-v943GRlpw8a3xK3n0-116" target="v0-v943GRlpw8a3xK3n0-121" edge="1">
          <mxGeometry relative="1" as="geometry">
            <mxPoint x="630" y="1950" as="targetPoint" />
          </mxGeometry>
        </mxCell>
        <mxCell id="v0-v943GRlpw8a3xK3n0-116" value="erste Frage des questionsObj wird in currentQuestion gespeichert und geladen" style="whiteSpace=wrap;html=1;rounded=1;shadow=0;strokeWidth=1;glass=0;" parent="WIyWlLk6GJQsqaUBKTNV-1" vertex="1">
          <mxGeometry x="390" y="1920" width="160" height="60" as="geometry" />
        </mxCell>
        <mxCell id="v0-v943GRlpw8a3xK3n0-119" value="&lt;span style=&quot;font-size: 21px&quot;&gt;&lt;u&gt;Initiales Laden eines Fragen-JSON&lt;/u&gt;&lt;/span&gt;" style="text;html=1;strokeColor=none;fillColor=none;align=center;verticalAlign=middle;whiteSpace=wrap;rounded=0;" parent="WIyWlLk6GJQsqaUBKTNV-1" vertex="1">
          <mxGeometry x="622" y="1590" width="205" height="20" as="geometry" />
        </mxCell>
        <mxCell id="v0-v943GRlpw8a3xK3n0-124" value="" style="edgeStyle=orthogonalEdgeStyle;rounded=0;orthogonalLoop=1;jettySize=auto;html=1;fontColor=#000000;endArrow=classic;endFill=1;" parent="WIyWlLk6GJQsqaUBKTNV-1" source="v0-v943GRlpw8a3xK3n0-121" target="v0-v943GRlpw8a3xK3n0-123" edge="1">
          <mxGeometry relative="1" as="geometry" />
        </mxCell>
        <mxCell id="v0-v943GRlpw8a3xK3n0-121" value="Frage wird aus currentQuestion in qPanel geladen / angezeigt&amp;nbsp;" style="whiteSpace=wrap;html=1;rounded=1;shadow=0;strokeWidth=1;glass=0;" parent="WIyWlLk6GJQsqaUBKTNV-1" vertex="1">
          <mxGeometry x="602.5" y="2200" width="160" height="60" as="geometry" />
        </mxCell>
        <mxCell id="v0-v943GRlpw8a3xK3n0-126" value="" style="edgeStyle=orthogonalEdgeStyle;rounded=0;orthogonalLoop=1;jettySize=auto;html=1;fontColor=#000000;endArrow=classic;endFill=1;" parent="WIyWlLk6GJQsqaUBKTNV-1" source="v0-v943GRlpw8a3xK3n0-123" target="v0-v943GRlpw8a3xK3n0-125" edge="1">
          <mxGeometry relative="1" as="geometry" />
        </mxCell>
        <mxCell id="v0-v943GRlpw8a3xK3n0-123" value="Antworttyp wird aus currentQuestion geladen und aPanel dementsprechend angepasst" style="whiteSpace=wrap;html=1;rounded=1;shadow=0;strokeWidth=1;glass=0;" parent="WIyWlLk6GJQsqaUBKTNV-1" vertex="1">
          <mxGeometry x="842.5" y="2200" width="160" height="60" as="geometry" />
        </mxCell>
        <mxCell id="v0-v943GRlpw8a3xK3n0-128" value="" style="edgeStyle=orthogonalEdgeStyle;rounded=0;orthogonalLoop=1;jettySize=auto;html=1;fontColor=#000000;endArrow=classic;endFill=1;" parent="WIyWlLk6GJQsqaUBKTNV-1" source="v0-v943GRlpw8a3xK3n0-125" target="v0-v943GRlpw8a3xK3n0-127" edge="1">
          <mxGeometry relative="1" as="geometry" />
        </mxCell>
        <mxCell id="v0-v943GRlpw8a3xK3n0-157" value="Nein" style="edgeLabel;html=1;align=center;verticalAlign=middle;resizable=0;points=[];fontColor=#000000;labelBackgroundColor=none;" parent="v0-v943GRlpw8a3xK3n0-128" vertex="1" connectable="0">
          <mxGeometry x="-0.2262" relative="1" as="geometry">
            <mxPoint x="-2" y="10" as="offset" />
          </mxGeometry>
        </mxCell>
        <mxCell id="v0-v943GRlpw8a3xK3n0-134" value="" style="edgeStyle=orthogonalEdgeStyle;rounded=0;orthogonalLoop=1;jettySize=auto;html=1;fontColor=#000000;endArrow=classic;endFill=1;" parent="WIyWlLk6GJQsqaUBKTNV-1" source="v0-v943GRlpw8a3xK3n0-125" target="v0-v943GRlpw8a3xK3n0-133" edge="1">
          <mxGeometry relative="1" as="geometry" />
        </mxCell>
        <mxCell id="v0-v943GRlpw8a3xK3n0-153" value="Ja" style="edgeLabel;html=1;align=center;verticalAlign=middle;resizable=0;points=[];fontColor=#000000;labelBackgroundColor=none;" parent="v0-v943GRlpw8a3xK3n0-134" vertex="1" connectable="0">
          <mxGeometry x="-0.233" y="-1" relative="1" as="geometry">
            <mxPoint x="16" y="-63" as="offset" />
          </mxGeometry>
        </mxCell>
        <mxCell id="v0-v943GRlpw8a3xK3n0-125" value="Typ: &quot;input&quot;" style="rhombus;whiteSpace=wrap;html=1;labelBackgroundColor=none;fontColor=#000000;gradientColor=none;" parent="WIyWlLk6GJQsqaUBKTNV-1" vertex="1">
          <mxGeometry x="1075" y="2190" width="80" height="80" as="geometry" />
        </mxCell>
        <mxCell id="v0-v943GRlpw8a3xK3n0-132" value="" style="edgeStyle=orthogonalEdgeStyle;rounded=0;orthogonalLoop=1;jettySize=auto;html=1;fontColor=#000000;endArrow=classic;endFill=1;" parent="WIyWlLk6GJQsqaUBKTNV-1" source="v0-v943GRlpw8a3xK3n0-127" target="v0-v943GRlpw8a3xK3n0-131" edge="1">
          <mxGeometry relative="1" as="geometry" />
        </mxCell>
        <mxCell id="v0-v943GRlpw8a3xK3n0-156" value="Nein" style="edgeLabel;html=1;align=center;verticalAlign=middle;resizable=0;points=[];fontColor=#000000;labelBackgroundColor=none;" parent="v0-v943GRlpw8a3xK3n0-132" vertex="1" connectable="0">
          <mxGeometry x="-0.1917" y="2" relative="1" as="geometry">
            <mxPoint y="12" as="offset" />
          </mxGeometry>
        </mxCell>
        <mxCell id="v0-v943GRlpw8a3xK3n0-136" value="" style="edgeStyle=orthogonalEdgeStyle;rounded=0;orthogonalLoop=1;jettySize=auto;html=1;fontColor=#000000;endArrow=classic;endFill=1;" parent="WIyWlLk6GJQsqaUBKTNV-1" source="v0-v943GRlpw8a3xK3n0-127" target="v0-v943GRlpw8a3xK3n0-135" edge="1">
          <mxGeometry relative="1" as="geometry" />
        </mxCell>
        <mxCell id="v0-v943GRlpw8a3xK3n0-154" value="Ja" style="edgeLabel;html=1;align=center;verticalAlign=middle;resizable=0;points=[];fontColor=#000000;labelBackgroundColor=none;" parent="v0-v943GRlpw8a3xK3n0-136" vertex="1" connectable="0">
          <mxGeometry x="-0.1459" relative="1" as="geometry">
            <mxPoint x="15" y="-71" as="offset" />
          </mxGeometry>
        </mxCell>
        <mxCell id="v0-v943GRlpw8a3xK3n0-127" value="Typ: &quot;date&quot;" style="rhombus;whiteSpace=wrap;html=1;labelBackgroundColor=none;fontColor=#000000;gradientColor=none;" parent="WIyWlLk6GJQsqaUBKTNV-1" vertex="1">
          <mxGeometry x="1235" y="2190" width="80" height="80" as="geometry" />
        </mxCell>
        <mxCell id="v0-v943GRlpw8a3xK3n0-138" value="" style="edgeStyle=orthogonalEdgeStyle;rounded=0;orthogonalLoop=1;jettySize=auto;html=1;fontColor=#000000;endArrow=classic;endFill=1;" parent="WIyWlLk6GJQsqaUBKTNV-1" source="v0-v943GRlpw8a3xK3n0-131" target="v0-v943GRlpw8a3xK3n0-137" edge="1">
          <mxGeometry relative="1" as="geometry" />
        </mxCell>
        <mxCell id="v0-v943GRlpw8a3xK3n0-155" value="Ja" style="edgeLabel;html=1;align=center;verticalAlign=middle;resizable=0;points=[];fontColor=#000000;labelBackgroundColor=none;" parent="v0-v943GRlpw8a3xK3n0-138" vertex="1" connectable="0">
          <mxGeometry x="-0.2723" relative="1" as="geometry">
            <mxPoint x="15" y="-12" as="offset" />
          </mxGeometry>
        </mxCell>
        <mxCell id="v0-v943GRlpw8a3xK3n0-131" value="Typ: &quot;select&quot;" style="rhombus;whiteSpace=wrap;html=1;labelBackgroundColor=none;fontColor=#000000;gradientColor=none;" parent="WIyWlLk6GJQsqaUBKTNV-1" vertex="1">
          <mxGeometry x="1395" y="2190" width="80" height="80" as="geometry" />
        </mxCell>
        <mxCell id="v0-v943GRlpw8a3xK3n0-146" value="" style="edgeStyle=orthogonalEdgeStyle;rounded=0;orthogonalLoop=1;jettySize=auto;html=1;fontColor=#000000;endArrow=classic;endFill=1;" parent="WIyWlLk6GJQsqaUBKTNV-1" source="v0-v943GRlpw8a3xK3n0-133" target="v0-v943GRlpw8a3xK3n0-145" edge="1">
          <mxGeometry relative="1" as="geometry" />
        </mxCell>
        <mxCell id="v0-v943GRlpw8a3xK3n0-133" value="InputAnswer wird in aPanel geladen" style="whiteSpace=wrap;html=1;rounded=1;shadow=0;strokeWidth=1;glass=0;" parent="WIyWlLk6GJQsqaUBKTNV-1" vertex="1">
          <mxGeometry x="1053.13" y="2460" width="123.75" height="60" as="geometry" />
        </mxCell>
        <mxCell id="v0-v943GRlpw8a3xK3n0-144" value="" style="edgeStyle=orthogonalEdgeStyle;rounded=0;orthogonalLoop=1;jettySize=auto;html=1;fontColor=#000000;endArrow=classic;endFill=1;" parent="WIyWlLk6GJQsqaUBKTNV-1" source="v0-v943GRlpw8a3xK3n0-135" target="v0-v943GRlpw8a3xK3n0-143" edge="1">
          <mxGeometry relative="1" as="geometry" />
        </mxCell>
        <mxCell id="v0-v943GRlpw8a3xK3n0-135" value="DateAnswer wird in aPanel geladen" style="whiteSpace=wrap;html=1;rounded=1;shadow=0;strokeWidth=1;glass=0;" parent="WIyWlLk6GJQsqaUBKTNV-1" vertex="1">
          <mxGeometry x="1212.5" y="2460" width="125" height="60" as="geometry" />
        </mxCell>
        <mxCell id="v0-v943GRlpw8a3xK3n0-140" value="" style="edgeStyle=orthogonalEdgeStyle;rounded=0;orthogonalLoop=1;jettySize=auto;html=1;fontColor=#000000;endArrow=classic;endFill=1;" parent="WIyWlLk6GJQsqaUBKTNV-1" source="v0-v943GRlpw8a3xK3n0-137" target="v0-v943GRlpw8a3xK3n0-139" edge="1">
          <mxGeometry relative="1" as="geometry" />
        </mxCell>
        <mxCell id="v0-v943GRlpw8a3xK3n0-137" value="JSONArray options wird aus currentQuestion befüllt" style="whiteSpace=wrap;html=1;rounded=1;shadow=0;strokeWidth=1;glass=0;" parent="WIyWlLk6GJQsqaUBKTNV-1" vertex="1">
          <mxGeometry x="1372.5" y="2330" width="125" height="60" as="geometry" />
        </mxCell>
        <mxCell id="v0-v943GRlpw8a3xK3n0-142" value="" style="edgeStyle=orthogonalEdgeStyle;rounded=0;orthogonalLoop=1;jettySize=auto;html=1;fontColor=#000000;endArrow=classic;endFill=1;" parent="WIyWlLk6GJQsqaUBKTNV-1" source="v0-v943GRlpw8a3xK3n0-139" target="v0-v943GRlpw8a3xK3n0-141" edge="1">
          <mxGeometry relative="1" as="geometry" />
        </mxCell>
        <mxCell id="v0-v943GRlpw8a3xK3n0-139" value="SelectionAnswer wird in aPanel geladen" style="whiteSpace=wrap;html=1;rounded=1;shadow=0;strokeWidth=1;glass=0;" parent="WIyWlLk6GJQsqaUBKTNV-1" vertex="1">
          <mxGeometry x="1372.5" y="2460" width="125" height="60" as="geometry" />
        </mxCell>
        <mxCell id="v0-v943GRlpw8a3xK3n0-152" value="" style="edgeStyle=orthogonalEdgeStyle;rounded=0;orthogonalLoop=1;jettySize=auto;html=1;fontColor=#000000;endArrow=classic;endFill=1;" parent="WIyWlLk6GJQsqaUBKTNV-1" source="v0-v943GRlpw8a3xK3n0-141" target="v0-v943GRlpw8a3xK3n0-151" edge="1">
          <mxGeometry relative="1" as="geometry" />
        </mxCell>
        <mxCell id="v0-v943GRlpw8a3xK3n0-141" value="RadioButtons mit dem Inhalt des options Array werden erstellt und in JButtonGroup gepackt" style="whiteSpace=wrap;html=1;rounded=1;shadow=0;strokeWidth=1;glass=0;" parent="WIyWlLk6GJQsqaUBKTNV-1" vertex="1">
          <mxGeometry x="1366.25" y="2560" width="137.5" height="60" as="geometry" />
        </mxCell>
        <mxCell id="v0-v943GRlpw8a3xK3n0-150" value="" style="edgeStyle=orthogonalEdgeStyle;rounded=0;orthogonalLoop=1;jettySize=auto;html=1;fontColor=#000000;endArrow=classic;endFill=1;" parent="WIyWlLk6GJQsqaUBKTNV-1" source="v0-v943GRlpw8a3xK3n0-143" target="v0-v943GRlpw8a3xK3n0-149" edge="1">
          <mxGeometry relative="1" as="geometry" />
        </mxCell>
        <mxCell id="v0-v943GRlpw8a3xK3n0-143" value="Kalender wird angezeigt, bei dem man ein Datum auswählen kann" style="whiteSpace=wrap;html=1;rounded=1;shadow=0;strokeWidth=1;glass=0;" parent="WIyWlLk6GJQsqaUBKTNV-1" vertex="1">
          <mxGeometry x="1212.5" y="2560" width="125" height="60" as="geometry" />
        </mxCell>
        <mxCell id="v0-v943GRlpw8a3xK3n0-148" value="" style="edgeStyle=orthogonalEdgeStyle;rounded=0;orthogonalLoop=1;jettySize=auto;html=1;fontColor=#000000;endArrow=classic;endFill=1;" parent="WIyWlLk6GJQsqaUBKTNV-1" source="v0-v943GRlpw8a3xK3n0-145" target="v0-v943GRlpw8a3xK3n0-147" edge="1">
          <mxGeometry relative="1" as="geometry" />
        </mxCell>
        <mxCell id="v0-v943GRlpw8a3xK3n0-145" value="JTextField wird angeiegt" style="whiteSpace=wrap;html=1;rounded=1;shadow=0;strokeWidth=1;glass=0;" parent="WIyWlLk6GJQsqaUBKTNV-1" vertex="1">
          <mxGeometry x="1046.25" y="2560" width="137.5" height="60" as="geometry" />
        </mxCell>
        <mxCell id="v0-v943GRlpw8a3xK3n0-159" value="" style="edgeStyle=orthogonalEdgeStyle;rounded=0;orthogonalLoop=1;jettySize=auto;html=1;fontColor=#000000;endArrow=classic;endFill=1;entryX=0.5;entryY=0;entryDx=0;entryDy=0;" parent="WIyWlLk6GJQsqaUBKTNV-1" source="v0-v943GRlpw8a3xK3n0-147" target="v0-v943GRlpw8a3xK3n0-165" edge="1">
          <mxGeometry relative="1" as="geometry">
            <mxPoint x="1115" y="2800" as="targetPoint" />
          </mxGeometry>
        </mxCell>
        <mxCell id="v0-v943GRlpw8a3xK3n0-147" value="Eingabe wird mit FancyButton next bestätigt" style="whiteSpace=wrap;html=1;rounded=1;shadow=0;strokeWidth=1;glass=0;" parent="WIyWlLk6GJQsqaUBKTNV-1" vertex="1">
          <mxGeometry x="1046.25" y="2690" width="137.5" height="60" as="geometry" />
        </mxCell>
        <mxCell id="v0-v943GRlpw8a3xK3n0-161" value="" style="edgeStyle=orthogonalEdgeStyle;rounded=0;orthogonalLoop=1;jettySize=auto;html=1;fontColor=#000000;endArrow=classic;endFill=1;entryX=0.5;entryY=0;entryDx=0;entryDy=0;" parent="WIyWlLk6GJQsqaUBKTNV-1" source="v0-v943GRlpw8a3xK3n0-149" target="v0-v943GRlpw8a3xK3n0-166" edge="1">
          <mxGeometry relative="1" as="geometry">
            <mxPoint x="1275" y="2900" as="targetPoint" />
          </mxGeometry>
        </mxCell>
        <mxCell id="v0-v943GRlpw8a3xK3n0-149" value="Datum wird mit FancyButton next bestätigt" style="whiteSpace=wrap;html=1;rounded=1;shadow=0;strokeWidth=1;glass=0;" parent="WIyWlLk6GJQsqaUBKTNV-1" vertex="1">
          <mxGeometry x="1206.25" y="2690" width="137.5" height="60" as="geometry" />
        </mxCell>
        <mxCell id="v0-v943GRlpw8a3xK3n0-163" value="" style="edgeStyle=orthogonalEdgeStyle;rounded=0;orthogonalLoop=1;jettySize=auto;html=1;fontColor=#000000;endArrow=classic;endFill=1;entryX=0.5;entryY=0;entryDx=0;entryDy=0;" parent="WIyWlLk6GJQsqaUBKTNV-1" source="v0-v943GRlpw8a3xK3n0-151" target="v0-v943GRlpw8a3xK3n0-167" edge="1">
          <mxGeometry relative="1" as="geometry">
            <mxPoint x="1435" y="2880" as="targetPoint" />
          </mxGeometry>
        </mxCell>
        <mxCell id="v0-v943GRlpw8a3xK3n0-151" value="Auswahl wird mit FancyButton next bestätigt" style="whiteSpace=wrap;html=1;rounded=1;shadow=0;strokeWidth=1;glass=0;" parent="WIyWlLk6GJQsqaUBKTNV-1" vertex="1">
          <mxGeometry x="1366.25" y="2690" width="137.5" height="60" as="geometry" />
        </mxCell>
        <mxCell id="v0-v943GRlpw8a3xK3n0-164" value="" style="edgeStyle=orthogonalEdgeStyle;rounded=0;orthogonalLoop=1;jettySize=auto;html=1;fontColor=#000000;endArrow=classic;endFill=1;exitX=1;exitY=0.5;exitDx=0;exitDy=0;entryX=0.5;entryY=0;entryDx=0;entryDy=0;" parent="WIyWlLk6GJQsqaUBKTNV-1" source="v0-v943GRlpw8a3xK3n0-165" target="v0-v943GRlpw8a3xK3n0-171" edge="1">
          <mxGeometry relative="1" as="geometry">
            <mxPoint x="1183.75" y="2820" as="sourcePoint" />
            <mxPoint x="1610" y="2835" as="targetPoint" />
            <Array as="points">
              <mxPoint x="1709" y="2835" />
            </Array>
          </mxGeometry>
        </mxCell>
        <mxCell id="v0-v943GRlpw8a3xK3n0-172" value="Nein" style="edgeLabel;html=1;align=center;verticalAlign=middle;resizable=0;points=[];fontColor=#000000;labelBackgroundColor=none;" parent="v0-v943GRlpw8a3xK3n0-164" vertex="1" connectable="0">
          <mxGeometry x="-0.8778" y="-3" relative="1" as="geometry">
            <mxPoint y="-18" as="offset" />
          </mxGeometry>
        </mxCell>
        <mxCell id="v0-v943GRlpw8a3xK3n0-180" value="" style="edgeStyle=orthogonalEdgeStyle;rounded=0;orthogonalLoop=1;jettySize=auto;html=1;fontColor=#000000;endArrow=classic;endFill=1;entryX=0;entryY=0.5;entryDx=0;entryDy=0;" parent="WIyWlLk6GJQsqaUBKTNV-1" source="v0-v943GRlpw8a3xK3n0-165" target="v0-v943GRlpw8a3xK3n0-190" edge="1">
          <mxGeometry relative="1" as="geometry">
            <mxPoint x="1190" y="3149" as="targetPoint" />
            <Array as="points">
              <mxPoint x="1115" y="3150" />
            </Array>
          </mxGeometry>
        </mxCell>
        <mxCell id="v0-v943GRlpw8a3xK3n0-181" value="Ja" style="edgeLabel;html=1;align=center;verticalAlign=middle;resizable=0;points=[];fontColor=#000000;labelBackgroundColor=none;" parent="v0-v943GRlpw8a3xK3n0-180" vertex="1" connectable="0">
          <mxGeometry x="-0.1837" relative="1" as="geometry">
            <mxPoint x="15" y="-23" as="offset" />
          </mxGeometry>
        </mxCell>
        <mxCell id="v0-v943GRlpw8a3xK3n0-165" value="Nicht leerer Input vorhanden?" style="rhombus;whiteSpace=wrap;html=1;labelBackgroundColor=none;fontColor=#000000;gradientColor=none;" parent="WIyWlLk6GJQsqaUBKTNV-1" vertex="1">
          <mxGeometry x="1060.0000000000002" y="2780" width="110" height="110" as="geometry" />
        </mxCell>
        <mxCell id="v0-v943GRlpw8a3xK3n0-168" value="" style="edgeStyle=orthogonalEdgeStyle;rounded=0;orthogonalLoop=1;jettySize=auto;html=1;fontColor=#000000;endArrow=classic;endFill=1;entryX=0.25;entryY=0;entryDx=0;entryDy=0;" parent="WIyWlLk6GJQsqaUBKTNV-1" source="v0-v943GRlpw8a3xK3n0-166" target="v0-v943GRlpw8a3xK3n0-171" edge="1">
          <mxGeometry relative="1" as="geometry">
            <mxPoint x="1680" y="2905" as="targetPoint" />
          </mxGeometry>
        </mxCell>
        <mxCell id="v0-v943GRlpw8a3xK3n0-173" value="Nein" style="edgeLabel;html=1;align=center;verticalAlign=middle;resizable=0;points=[];fontColor=#000000;labelBackgroundColor=none;" parent="v0-v943GRlpw8a3xK3n0-168" vertex="1" connectable="0">
          <mxGeometry x="-0.7987" y="2" relative="1" as="geometry">
            <mxPoint x="-1" y="-13" as="offset" />
          </mxGeometry>
        </mxCell>
        <mxCell id="v0-v943GRlpw8a3xK3n0-178" value="" style="edgeStyle=orthogonalEdgeStyle;rounded=0;orthogonalLoop=1;jettySize=auto;html=1;fontColor=#000000;endArrow=classic;endFill=1;entryX=0.5;entryY=0;entryDx=0;entryDy=0;" parent="WIyWlLk6GJQsqaUBKTNV-1" source="v0-v943GRlpw8a3xK3n0-166" target="v0-v943GRlpw8a3xK3n0-190" edge="1">
          <mxGeometry relative="1" as="geometry">
            <mxPoint x="1275" y="3070" as="targetPoint" />
          </mxGeometry>
        </mxCell>
        <mxCell id="v0-v943GRlpw8a3xK3n0-182" value="Ja" style="edgeLabel;html=1;align=center;verticalAlign=middle;resizable=0;points=[];fontColor=#000000;labelBackgroundColor=none;" parent="v0-v943GRlpw8a3xK3n0-178" vertex="1" connectable="0">
          <mxGeometry x="-0.2833" relative="1" as="geometry">
            <mxPoint x="25" y="-28" as="offset" />
          </mxGeometry>
        </mxCell>
        <mxCell id="v0-v943GRlpw8a3xK3n0-166" value="&lt;span&gt;Datum ausgewählt?&lt;/span&gt;" style="rhombus;whiteSpace=wrap;html=1;labelBackgroundColor=none;fontColor=#000000;gradientColor=none;" parent="WIyWlLk6GJQsqaUBKTNV-1" vertex="1">
          <mxGeometry x="1216.25" y="2850" width="117.5" height="110" as="geometry" />
        </mxCell>
        <mxCell id="v0-v943GRlpw8a3xK3n0-170" value="" style="edgeStyle=orthogonalEdgeStyle;rounded=0;orthogonalLoop=1;jettySize=auto;html=1;fontColor=#000000;endArrow=classic;endFill=1;entryX=0;entryY=0.5;entryDx=0;entryDy=0;" parent="WIyWlLk6GJQsqaUBKTNV-1" source="v0-v943GRlpw8a3xK3n0-167" target="v0-v943GRlpw8a3xK3n0-171" edge="1">
          <mxGeometry relative="1" as="geometry">
            <mxPoint x="1575" y="2990" as="targetPoint" />
          </mxGeometry>
        </mxCell>
        <mxCell id="v0-v943GRlpw8a3xK3n0-174" value="Nein" style="edgeLabel;html=1;align=center;verticalAlign=middle;resizable=0;points=[];fontColor=#000000;labelBackgroundColor=none;" parent="v0-v943GRlpw8a3xK3n0-170" vertex="1" connectable="0">
          <mxGeometry x="-0.1371" y="-1" relative="1" as="geometry">
            <mxPoint x="-28" y="-11" as="offset" />
          </mxGeometry>
        </mxCell>
        <mxCell id="v0-v943GRlpw8a3xK3n0-176" value="" style="edgeStyle=orthogonalEdgeStyle;rounded=0;orthogonalLoop=1;jettySize=auto;html=1;fontColor=#000000;endArrow=classic;endFill=1;exitX=0.5;exitY=1;exitDx=0;exitDy=0;entryX=1;entryY=0.5;entryDx=0;entryDy=0;" parent="WIyWlLk6GJQsqaUBKTNV-1" source="v0-v943GRlpw8a3xK3n0-167" target="v0-v943GRlpw8a3xK3n0-190" edge="1">
          <mxGeometry relative="1" as="geometry">
            <mxPoint x="1390" y="3190" as="targetPoint" />
            <Array as="points">
              <mxPoint x="1435" y="3150" />
            </Array>
          </mxGeometry>
        </mxCell>
        <mxCell id="v0-v943GRlpw8a3xK3n0-183" value="Ja" style="edgeLabel;html=1;align=center;verticalAlign=middle;resizable=0;points=[];fontColor=#000000;labelBackgroundColor=none;" parent="v0-v943GRlpw8a3xK3n0-176" vertex="1" connectable="0">
          <mxGeometry x="-0.2699" y="-1" relative="1" as="geometry">
            <mxPoint x="26" y="-30" as="offset" />
          </mxGeometry>
        </mxCell>
        <mxCell id="v0-v943GRlpw8a3xK3n0-167" value="&lt;span&gt;RadioButton ausgewählt?&lt;/span&gt;" style="rhombus;whiteSpace=wrap;html=1;labelBackgroundColor=none;fontColor=#000000;gradientColor=none;" parent="WIyWlLk6GJQsqaUBKTNV-1" vertex="1">
          <mxGeometry x="1375" y="2930" width="120" height="120" as="geometry" />
        </mxCell>
        <mxCell id="v0-v943GRlpw8a3xK3n0-189" value="" style="edgeStyle=orthogonalEdgeStyle;rounded=0;orthogonalLoop=1;jettySize=auto;html=1;fontColor=#000000;endArrow=classic;endFill=1;" parent="WIyWlLk6GJQsqaUBKTNV-1" source="v0-v943GRlpw8a3xK3n0-171" target="v0-v943GRlpw8a3xK3n0-187" edge="1">
          <mxGeometry relative="1" as="geometry" />
        </mxCell>
        <mxCell id="v0-v943GRlpw8a3xK3n0-171" value="FaultyAnswerException werfen" style="whiteSpace=wrap;html=1;rounded=1;shadow=0;strokeWidth=1;glass=0;" parent="WIyWlLk6GJQsqaUBKTNV-1" vertex="1">
          <mxGeometry x="1640" y="2960" width="137.5" height="60" as="geometry" />
        </mxCell>
        <mxCell id="v0-v943GRlpw8a3xK3n0-186" value="&lt;span style=&quot;font-size: 21px&quot;&gt;&lt;u&gt;Laden einer Frage&lt;/u&gt;&lt;/span&gt;" style="text;html=1;strokeColor=none;fillColor=none;align=center;verticalAlign=middle;whiteSpace=wrap;rounded=0;" parent="WIyWlLk6GJQsqaUBKTNV-1" vertex="1">
          <mxGeometry x="810" y="2110" width="205" height="20" as="geometry" />
        </mxCell>
        <mxCell id="v0-v943GRlpw8a3xK3n0-194" value="" style="edgeStyle=orthogonalEdgeStyle;rounded=0;orthogonalLoop=1;jettySize=auto;html=1;fontColor=#000000;endArrow=classic;endFill=1;entryX=1;entryY=0.5;entryDx=0;entryDy=0;" parent="WIyWlLk6GJQsqaUBKTNV-1" source="v0-v943GRlpw8a3xK3n0-187" target="v0-v943GRlpw8a3xK3n0-191" edge="1">
          <mxGeometry relative="1" as="geometry">
            <mxPoint x="1708.7500000000005" y="3290" as="targetPoint" />
            <Array as="points">
              <mxPoint x="1709" y="3295" />
            </Array>
          </mxGeometry>
        </mxCell>
        <mxCell id="v0-v943GRlpw8a3xK3n0-195" value="Ja" style="edgeLabel;html=1;align=center;verticalAlign=middle;resizable=0;points=[];fontColor=#000000;labelBackgroundColor=none;" parent="v0-v943GRlpw8a3xK3n0-194" vertex="1" connectable="0">
          <mxGeometry x="-0.8474" y="-1" relative="1" as="geometry">
            <mxPoint x="12" y="-17" as="offset" />
          </mxGeometry>
        </mxCell>
        <mxCell id="v0-v943GRlpw8a3xK3n0-199" value="" style="edgeStyle=orthogonalEdgeStyle;rounded=0;orthogonalLoop=1;jettySize=auto;html=1;fontColor=#000000;endArrow=classic;endFill=1;" parent="WIyWlLk6GJQsqaUBKTNV-1" source="v0-v943GRlpw8a3xK3n0-187" target="v0-v943GRlpw8a3xK3n0-198" edge="1">
          <mxGeometry relative="1" as="geometry" />
        </mxCell>
        <mxCell id="v0-v943GRlpw8a3xK3n0-242" value="Nein" style="edgeLabel;html=1;align=center;verticalAlign=middle;resizable=0;points=[];fontColor=#000000;labelBackgroundColor=none;" parent="v0-v943GRlpw8a3xK3n0-199" vertex="1" connectable="0">
          <mxGeometry x="-0.2976" y="-2" relative="1" as="geometry">
            <mxPoint y="-12" as="offset" />
          </mxGeometry>
        </mxCell>
        <mxCell id="v0-v943GRlpw8a3xK3n0-187" value="&quot;allowedEmpty&quot; &lt;br&gt;der currentQuestion&lt;br&gt;true?" style="rhombus;whiteSpace=wrap;html=1;labelBackgroundColor=none;fontColor=#000000;fillColor=#ffffff;gradientColor=none;" parent="WIyWlLk6GJQsqaUBKTNV-1" vertex="1">
          <mxGeometry x="1648.75" y="3060" width="120" height="120" as="geometry" />
        </mxCell>
        <mxCell id="v0-v943GRlpw8a3xK3n0-192" value="" style="edgeStyle=orthogonalEdgeStyle;rounded=0;orthogonalLoop=1;jettySize=auto;html=1;fontColor=#000000;endArrow=classic;endFill=1;" parent="WIyWlLk6GJQsqaUBKTNV-1" source="v0-v943GRlpw8a3xK3n0-190" target="v0-v943GRlpw8a3xK3n0-191" edge="1">
          <mxGeometry relative="1" as="geometry" />
        </mxCell>
        <mxCell id="v0-v943GRlpw8a3xK3n0-190" value="Speicherort der Frage wird aus currentQuestion gelese" style="rounded=1;whiteSpace=wrap;html=1;labelBackgroundColor=none;fontColor=#000000;fillColor=#ffffff;gradientColor=none;" parent="WIyWlLk6GJQsqaUBKTNV-1" vertex="1">
          <mxGeometry x="1215" y="3120" width="120" height="60" as="geometry" />
        </mxCell>
        <mxCell id="v0-v943GRlpw8a3xK3n0-205" value="" style="edgeStyle=orthogonalEdgeStyle;rounded=0;orthogonalLoop=1;jettySize=auto;html=1;fontColor=#000000;endArrow=classic;endFill=1;entryX=0.5;entryY=0;entryDx=0;entryDy=0;" parent="WIyWlLk6GJQsqaUBKTNV-1" source="v0-v943GRlpw8a3xK3n0-191" target="v0-v943GRlpw8a3xK3n0-244" edge="1">
          <mxGeometry relative="1" as="geometry" />
        </mxCell>
        <mxCell id="v0-v943GRlpw8a3xK3n0-191" value="Antwort wird in baseModel (siehe &quot;Initiales Laden eines Fragen JSON&quot;) gespeichert" style="rounded=1;whiteSpace=wrap;html=1;labelBackgroundColor=none;fontColor=#000000;fillColor=#ffffff;gradientColor=none;" parent="WIyWlLk6GJQsqaUBKTNV-1" vertex="1">
          <mxGeometry x="1215" y="3260" width="120" height="70" as="geometry" />
        </mxCell>
        <mxCell id="v0-v943GRlpw8a3xK3n0-201" value="" style="edgeStyle=orthogonalEdgeStyle;rounded=0;orthogonalLoop=1;jettySize=auto;html=1;fontColor=#000000;endArrow=classic;endFill=1;" parent="WIyWlLk6GJQsqaUBKTNV-1" source="v0-v943GRlpw8a3xK3n0-198" target="v0-v943GRlpw8a3xK3n0-200" edge="1">
          <mxGeometry relative="1" as="geometry" />
        </mxCell>
        <mxCell id="v0-v943GRlpw8a3xK3n0-198" value="ErrorPopUp wird geöffnet" style="whiteSpace=wrap;html=1;rounded=1;shadow=0;strokeWidth=1;glass=0;" parent="WIyWlLk6GJQsqaUBKTNV-1" vertex="1">
          <mxGeometry x="1850" y="3090" width="137.5" height="60" as="geometry" />
        </mxCell>
        <mxCell id="v0-v943GRlpw8a3xK3n0-203" value="" style="edgeStyle=orthogonalEdgeStyle;rounded=0;orthogonalLoop=1;jettySize=auto;html=1;fontColor=#000000;endArrow=classic;endFill=1;entryX=0.75;entryY=0;entryDx=0;entryDy=0;" parent="WIyWlLk6GJQsqaUBKTNV-1" source="v0-v943GRlpw8a3xK3n0-200" target="v0-v943GRlpw8a3xK3n0-121" edge="1">
          <mxGeometry relative="1" as="geometry">
            <mxPoint x="2136.25" y="2920" as="targetPoint" />
            <Array as="points">
              <mxPoint x="2136" y="2950" />
              <mxPoint x="1890" y="2950" />
              <mxPoint x="1890" y="2050" />
              <mxPoint x="723" y="2050" />
            </Array>
          </mxGeometry>
        </mxCell>
        <mxCell id="v0-v943GRlpw8a3xK3n0-200" value="Frage wird erneut geöffnet" style="whiteSpace=wrap;html=1;rounded=1;shadow=0;strokeWidth=1;glass=0;" parent="WIyWlLk6GJQsqaUBKTNV-1" vertex="1">
          <mxGeometry x="2067.5" y="3090" width="137.5" height="60" as="geometry" />
        </mxCell>
        <mxCell id="v0-v943GRlpw8a3xK3n0-207" value="" style="edgeStyle=orthogonalEdgeStyle;rounded=0;orthogonalLoop=1;jettySize=auto;html=1;fontColor=#000000;endArrow=classic;endFill=1;" parent="WIyWlLk6GJQsqaUBKTNV-1" source="v0-v943GRlpw8a3xK3n0-204" target="v0-v943GRlpw8a3xK3n0-206" edge="1">
          <mxGeometry relative="1" as="geometry" />
        </mxCell>
        <mxCell id="v0-v943GRlpw8a3xK3n0-204" value="nextQuestion wird aus currentQuestion gelesen" style="rounded=1;whiteSpace=wrap;html=1;labelBackgroundColor=none;fontColor=#000000;fillColor=#ffffff;gradientColor=none;" parent="WIyWlLk6GJQsqaUBKTNV-1" vertex="1">
          <mxGeometry x="1215" y="3560" width="120" height="70" as="geometry" />
        </mxCell>
        <mxCell id="v0-v943GRlpw8a3xK3n0-209" value="" style="edgeStyle=orthogonalEdgeStyle;rounded=0;orthogonalLoop=1;jettySize=auto;html=1;fontColor=#000000;endArrow=classic;endFill=1;entryX=0.5;entryY=0;entryDx=0;entryDy=0;" parent="WIyWlLk6GJQsqaUBKTNV-1" source="v0-v943GRlpw8a3xK3n0-206" target="v0-v943GRlpw8a3xK3n0-262" edge="1">
          <mxGeometry relative="1" as="geometry">
            <mxPoint x="1270" y="3810" as="targetPoint" />
            <Array as="points">
              <mxPoint x="1275" y="3810" />
              <mxPoint x="470" y="3810" />
            </Array>
          </mxGeometry>
        </mxCell>
        <mxCell id="v0-v943GRlpw8a3xK3n0-210" value="Ja" style="edgeLabel;html=1;align=center;verticalAlign=middle;resizable=0;points=[];fontColor=#000000;labelBackgroundColor=none;" parent="v0-v943GRlpw8a3xK3n0-209" vertex="1" connectable="0">
          <mxGeometry x="-0.384" y="1" relative="1" as="geometry">
            <mxPoint x="231" y="-41" as="offset" />
          </mxGeometry>
        </mxCell>
        <mxCell id="v0-v943GRlpw8a3xK3n0-212" value="" style="edgeStyle=orthogonalEdgeStyle;rounded=0;orthogonalLoop=1;jettySize=auto;html=1;fontColor=#000000;endArrow=classic;endFill=1;entryX=1;entryY=0.5;entryDx=0;entryDy=0;" parent="WIyWlLk6GJQsqaUBKTNV-1" source="v0-v943GRlpw8a3xK3n0-206" target="v0-v943GRlpw8a3xK3n0-214" edge="1">
          <mxGeometry relative="1" as="geometry">
            <mxPoint x="1160" y="3715" as="targetPoint" />
          </mxGeometry>
        </mxCell>
        <mxCell id="v0-v943GRlpw8a3xK3n0-213" value="Nein" style="edgeLabel;html=1;align=center;verticalAlign=middle;resizable=0;points=[];fontColor=#000000;labelBackgroundColor=none;" parent="v0-v943GRlpw8a3xK3n0-212" vertex="1" connectable="0">
          <mxGeometry x="-0.1411" relative="1" as="geometry">
            <mxPoint y="-15" as="offset" />
          </mxGeometry>
        </mxCell>
        <mxCell id="v0-v943GRlpw8a3xK3n0-206" value="nextQuestion null?" style="rhombus;whiteSpace=wrap;html=1;labelBackgroundColor=none;fontColor=#000000;fillColor=#ffffff;gradientColor=none;" parent="WIyWlLk6GJQsqaUBKTNV-1" vertex="1">
          <mxGeometry x="1227.5" y="3670" width="95" height="90" as="geometry" />
        </mxCell>
        <mxCell id="v0-v943GRlpw8a3xK3n0-217" value="" style="edgeStyle=orthogonalEdgeStyle;rounded=0;orthogonalLoop=1;jettySize=auto;html=1;fontColor=#000000;endArrow=classic;endFill=1;" parent="WIyWlLk6GJQsqaUBKTNV-1" source="v0-v943GRlpw8a3xK3n0-214" edge="1">
          <mxGeometry relative="1" as="geometry">
            <mxPoint x="643" y="2200" as="targetPoint" />
            <Array as="points">
              <mxPoint x="540" y="3710" />
              <mxPoint x="540" y="2040" />
              <mxPoint x="643" y="2040" />
            </Array>
          </mxGeometry>
        </mxCell>
        <mxCell id="v0-v943GRlpw8a3xK3n0-214" value="nextQuestion wird zur currentQuestion" style="rounded=1;whiteSpace=wrap;html=1;labelBackgroundColor=none;fontColor=#000000;fillColor=#ffffff;gradientColor=none;" parent="WIyWlLk6GJQsqaUBKTNV-1" vertex="1">
          <mxGeometry x="1055" y="3680" width="120" height="70" as="geometry" />
        </mxCell>
        <mxCell id="v0-v943GRlpw8a3xK3n0-220" value="&lt;span style=&quot;font-size: 21px&quot;&gt;&lt;u&gt;Speichern der Frage im baseModel&lt;/u&gt;&lt;/span&gt;" style="text;html=1;strokeColor=none;fillColor=none;align=center;verticalAlign=middle;whiteSpace=wrap;rounded=0;" parent="WIyWlLk6GJQsqaUBKTNV-1" vertex="1">
          <mxGeometry x="615" y="2710" width="205" height="20" as="geometry" />
        </mxCell>
        <mxCell id="v0-v943GRlpw8a3xK3n0-222" value="" style="rounded=0;whiteSpace=wrap;html=1;labelBackgroundColor=none;fontColor=#000000;fillColor=#FFFFCC;gradientColor=none;" parent="WIyWlLk6GJQsqaUBKTNV-1" vertex="1">
          <mxGeometry x="1520" y="3380" width="710" height="380" as="geometry" />
        </mxCell>
        <mxCell id="v0-v943GRlpw8a3xK3n0-224" value="&lt;span style=&quot;font-size: 21px&quot;&gt;&lt;u&gt;Alternativ: Drücken des previous Buttons&lt;/u&gt;&lt;/span&gt;" style="text;html=1;strokeColor=none;fillColor=none;align=center;verticalAlign=middle;whiteSpace=wrap;rounded=0;" parent="WIyWlLk6GJQsqaUBKTNV-1" vertex="1">
          <mxGeometry x="1530" y="3410" width="205" height="20" as="geometry" />
        </mxCell>
        <mxCell id="v0-v943GRlpw8a3xK3n0-225" value="" style="edgeStyle=orthogonalEdgeStyle;rounded=0;orthogonalLoop=1;jettySize=auto;html=1;fontColor=#000000;endArrow=classic;endFill=1;" parent="WIyWlLk6GJQsqaUBKTNV-1" source="v0-v943GRlpw8a3xK3n0-226" target="v0-v943GRlpw8a3xK3n0-231" edge="1">
          <mxGeometry relative="1" as="geometry" />
        </mxCell>
        <mxCell id="v0-v943GRlpw8a3xK3n0-226" value="previousQuestion wird aus currentQuestion gelesen" style="rounded=1;whiteSpace=wrap;html=1;labelBackgroundColor=none;fontColor=#000000;fillColor=#ffffff;gradientColor=none;" parent="WIyWlLk6GJQsqaUBKTNV-1" vertex="1">
          <mxGeometry x="1890" y="3410" width="120" height="70" as="geometry" />
        </mxCell>
        <mxCell id="v0-v943GRlpw8a3xK3n0-227" value="" style="edgeStyle=orthogonalEdgeStyle;rounded=0;orthogonalLoop=1;jettySize=auto;html=1;fontColor=#000000;endArrow=classic;endFill=1;" parent="WIyWlLk6GJQsqaUBKTNV-1" source="v0-v943GRlpw8a3xK3n0-231" target="v0-v943GRlpw8a3xK3n0-232" edge="1">
          <mxGeometry relative="1" as="geometry" />
        </mxCell>
        <mxCell id="v0-v943GRlpw8a3xK3n0-228" value="Ja" style="edgeLabel;html=1;align=center;verticalAlign=middle;resizable=0;points=[];fontColor=#000000;labelBackgroundColor=none;" parent="v0-v943GRlpw8a3xK3n0-227" vertex="1" connectable="0">
          <mxGeometry x="-0.384" y="1" relative="1" as="geometry">
            <mxPoint x="9" y="-9" as="offset" />
          </mxGeometry>
        </mxCell>
        <mxCell id="v0-v943GRlpw8a3xK3n0-229" value="" style="edgeStyle=orthogonalEdgeStyle;rounded=0;orthogonalLoop=1;jettySize=auto;html=1;fontColor=#000000;endArrow=classic;endFill=1;entryX=1;entryY=0.5;entryDx=0;entryDy=0;" parent="WIyWlLk6GJQsqaUBKTNV-1" source="v0-v943GRlpw8a3xK3n0-231" target="v0-v943GRlpw8a3xK3n0-233" edge="1">
          <mxGeometry relative="1" as="geometry">
            <mxPoint x="1835" y="3565" as="targetPoint" />
          </mxGeometry>
        </mxCell>
        <mxCell id="v0-v943GRlpw8a3xK3n0-230" value="Nein" style="edgeLabel;html=1;align=center;verticalAlign=middle;resizable=0;points=[];fontColor=#000000;labelBackgroundColor=none;" parent="v0-v943GRlpw8a3xK3n0-229" vertex="1" connectable="0">
          <mxGeometry x="-0.1411" relative="1" as="geometry">
            <mxPoint y="-15" as="offset" />
          </mxGeometry>
        </mxCell>
        <mxCell id="v0-v943GRlpw8a3xK3n0-231" value="nextQuestion null?" style="rhombus;whiteSpace=wrap;html=1;labelBackgroundColor=none;fontColor=#000000;fillColor=#ffffff;gradientColor=none;" parent="WIyWlLk6GJQsqaUBKTNV-1" vertex="1">
          <mxGeometry x="1902.5" y="3520" width="95" height="90" as="geometry" />
        </mxCell>
        <mxCell id="v0-v943GRlpw8a3xK3n0-232" value="Frage bleibt bestehen" style="whiteSpace=wrap;html=1;" parent="WIyWlLk6GJQsqaUBKTNV-1" vertex="1">
          <mxGeometry x="1890" y="3660" width="120" height="60" as="geometry" />
        </mxCell>
        <mxCell id="v0-v943GRlpw8a3xK3n0-235" value="" style="edgeStyle=orthogonalEdgeStyle;rounded=0;orthogonalLoop=1;jettySize=auto;html=1;fontColor=#000000;endArrow=classic;endFill=1;" parent="WIyWlLk6GJQsqaUBKTNV-1" source="v0-v943GRlpw8a3xK3n0-233" edge="1">
          <mxGeometry relative="1" as="geometry">
            <mxPoint x="1520" y="3565" as="targetPoint" />
          </mxGeometry>
        </mxCell>
        <mxCell id="v0-v943GRlpw8a3xK3n0-233" value="previousQuestion&amp;nbsp;wird geladen" style="rounded=1;whiteSpace=wrap;html=1;labelBackgroundColor=none;fontColor=#000000;fillColor=#ffffff;gradientColor=none;" parent="WIyWlLk6GJQsqaUBKTNV-1" vertex="1">
          <mxGeometry x="1730" y="3530" width="120" height="70" as="geometry" />
        </mxCell>
        <mxCell id="v0-v943GRlpw8a3xK3n0-238" value="" style="edgeStyle=orthogonalEdgeStyle;rounded=0;orthogonalLoop=1;jettySize=auto;html=1;fontColor=#000000;endArrow=classic;endFill=1;" parent="WIyWlLk6GJQsqaUBKTNV-1" target="v0-v943GRlpw8a3xK3n0-226" edge="1">
          <mxGeometry relative="1" as="geometry">
            <mxPoint x="1950" y="3380" as="sourcePoint" />
          </mxGeometry>
        </mxCell>
        <mxCell id="v0-v943GRlpw8a3xK3n0-241" value="" style="edgeStyle=orthogonalEdgeStyle;rounded=0;orthogonalLoop=1;jettySize=auto;html=1;dashed=1;fontColor=#000000;endArrow=none;endFill=0;" parent="WIyWlLk6GJQsqaUBKTNV-1" source="v0-v943GRlpw8a3xK3n0-239" edge="1">
          <mxGeometry relative="1" as="geometry">
            <mxPoint x="1950" y="3390" as="targetPoint" />
          </mxGeometry>
        </mxCell>
        <mxCell id="v0-v943GRlpw8a3xK3n0-239" value="&lt;font style=&quot;font-size: 6px&quot;&gt;Zuvor findet hierbei keine Eingabenprüfung statt und keine Eingabe wird gespeichert&lt;/font&gt;" style="text;html=1;strokeColor=none;fillColor=none;align=center;verticalAlign=middle;whiteSpace=wrap;rounded=0;labelBackgroundColor=none;fontColor=#000000;" parent="WIyWlLk6GJQsqaUBKTNV-1" vertex="1">
          <mxGeometry x="2076.25" y="3380" width="120" height="20" as="geometry" />
        </mxCell>
        <mxCell id="v0-v943GRlpw8a3xK3n0-246" value="" style="edgeStyle=orthogonalEdgeStyle;rounded=0;orthogonalLoop=1;jettySize=auto;html=1;fontColor=#000000;endArrow=classic;endFill=1;" parent="WIyWlLk6GJQsqaUBKTNV-1" source="v0-v943GRlpw8a3xK3n0-244" target="v0-v943GRlpw8a3xK3n0-204" edge="1">
          <mxGeometry relative="1" as="geometry" />
        </mxCell>
        <mxCell id="v0-v943GRlpw8a3xK3n0-247" value="Nein" style="edgeLabel;html=1;align=center;verticalAlign=middle;resizable=0;points=[];fontColor=#000000;labelBackgroundColor=none;" parent="v0-v943GRlpw8a3xK3n0-246" vertex="1" connectable="0">
          <mxGeometry x="-0.3947" relative="1" as="geometry">
            <mxPoint x="25" as="offset" />
          </mxGeometry>
        </mxCell>
        <mxCell id="v0-v943GRlpw8a3xK3n0-249" value="" style="edgeStyle=orthogonalEdgeStyle;rounded=0;orthogonalLoop=1;jettySize=auto;html=1;fontColor=#000000;endArrow=classic;endFill=1;entryX=1;entryY=0.5;entryDx=0;entryDy=0;" parent="WIyWlLk6GJQsqaUBKTNV-1" source="v0-v943GRlpw8a3xK3n0-244" target="v0-v943GRlpw8a3xK3n0-251" edge="1">
          <mxGeometry relative="1" as="geometry">
            <mxPoint x="1160" y="3420" as="targetPoint" />
          </mxGeometry>
        </mxCell>
        <mxCell id="v0-v943GRlpw8a3xK3n0-250" value="Ja" style="edgeLabel;html=1;align=center;verticalAlign=middle;resizable=0;points=[];fontColor=#000000;labelBackgroundColor=none;" parent="v0-v943GRlpw8a3xK3n0-249" vertex="1" connectable="0">
          <mxGeometry x="-0.305" relative="1" as="geometry">
            <mxPoint y="-10" as="offset" />
          </mxGeometry>
        </mxCell>
        <mxCell id="v0-v943GRlpw8a3xK3n0-244" value="case Unterscheidung bei Antwort?" style="rhombus;whiteSpace=wrap;html=1;labelBackgroundColor=none;fontColor=#000000;fillColor=#ffffff;gradientColor=none;" parent="WIyWlLk6GJQsqaUBKTNV-1" vertex="1">
          <mxGeometry x="1220" y="3370" width="110" height="100" as="geometry" />
        </mxCell>
        <mxCell id="v0-v943GRlpw8a3xK3n0-254" value="" style="edgeStyle=orthogonalEdgeStyle;rounded=0;orthogonalLoop=1;jettySize=auto;html=1;fontColor=#000000;endArrow=classic;endFill=1;entryX=0;entryY=0.5;entryDx=0;entryDy=0;" parent="WIyWlLk6GJQsqaUBKTNV-1" source="v0-v943GRlpw8a3xK3n0-248" target="v0-v943GRlpw8a3xK3n0-204" edge="1">
          <mxGeometry relative="1" as="geometry">
            <mxPoint x="930" y="3579.9999999999995" as="targetPoint" />
            <Array as="points">
              <mxPoint x="930" y="3510" />
              <mxPoint x="1160" y="3510" />
              <mxPoint x="1160" y="3595" />
            </Array>
          </mxGeometry>
        </mxCell>
        <mxCell id="v0-v943GRlpw8a3xK3n0-255" value="Nein" style="edgeLabel;html=1;align=center;verticalAlign=middle;resizable=0;points=[];fontColor=#000000;labelBackgroundColor=none;" parent="v0-v943GRlpw8a3xK3n0-254" vertex="1" connectable="0">
          <mxGeometry x="-0.9319" relative="1" as="geometry">
            <mxPoint x="20" as="offset" />
          </mxGeometry>
        </mxCell>
        <mxCell id="v0-v943GRlpw8a3xK3n0-257" value="" style="edgeStyle=orthogonalEdgeStyle;rounded=0;orthogonalLoop=1;jettySize=auto;html=1;fontColor=#000000;endArrow=classic;endFill=1;" parent="WIyWlLk6GJQsqaUBKTNV-1" source="v0-v943GRlpw8a3xK3n0-248" target="v0-v943GRlpw8a3xK3n0-256" edge="1">
          <mxGeometry relative="1" as="geometry" />
        </mxCell>
        <mxCell id="v0-v943GRlpw8a3xK3n0-258" value="Ja" style="edgeLabel;html=1;align=center;verticalAlign=middle;resizable=0;points=[];fontColor=#000000;labelBackgroundColor=none;" parent="v0-v943GRlpw8a3xK3n0-257" vertex="1" connectable="0">
          <mxGeometry x="-0.2629" y="-1" relative="1" as="geometry">
            <mxPoint y="-9" as="offset" />
          </mxGeometry>
        </mxCell>
        <mxCell id="v0-v943GRlpw8a3xK3n0-248" value="wird case durch Antwort ausgelöst?" style="rhombus;whiteSpace=wrap;html=1;labelBackgroundColor=none;fontColor=#000000;fillColor=#ffffff;gradientColor=none;" parent="WIyWlLk6GJQsqaUBKTNV-1" vertex="1">
          <mxGeometry x="870" y="3365" width="120" height="110" as="geometry" />
        </mxCell>
        <mxCell id="v0-v943GRlpw8a3xK3n0-252" value="" style="edgeStyle=orthogonalEdgeStyle;rounded=0;orthogonalLoop=1;jettySize=auto;html=1;fontColor=#000000;endArrow=classic;endFill=1;" parent="WIyWlLk6GJQsqaUBKTNV-1" source="v0-v943GRlpw8a3xK3n0-251" target="v0-v943GRlpw8a3xK3n0-248" edge="1">
          <mxGeometry relative="1" as="geometry" />
        </mxCell>
        <mxCell id="v0-v943GRlpw8a3xK3n0-251" value="cases werden aus currentQuestion geladen" style="rounded=1;whiteSpace=wrap;html=1;labelBackgroundColor=none;fontColor=#000000;fillColor=#ffffff;gradientColor=none;" parent="WIyWlLk6GJQsqaUBKTNV-1" vertex="1">
          <mxGeometry x="1040" y="3385" width="120" height="70" as="geometry" />
        </mxCell>
        <mxCell id="v0-v943GRlpw8a3xK3n0-260" value="" style="edgeStyle=orthogonalEdgeStyle;rounded=0;orthogonalLoop=1;jettySize=auto;html=1;fontColor=#000000;endArrow=classic;endFill=1;entryX=0.103;entryY=-0.026;entryDx=0;entryDy=0;entryPerimeter=0;" parent="WIyWlLk6GJQsqaUBKTNV-1" source="v0-v943GRlpw8a3xK3n0-256" target="v0-v943GRlpw8a3xK3n0-121" edge="1">
          <mxGeometry relative="1" as="geometry">
            <mxPoint x="570" y="2890" as="targetPoint" />
            <Array as="points">
              <mxPoint x="570" y="3420" />
              <mxPoint x="570" y="2060" />
              <mxPoint x="619" y="2060" />
            </Array>
          </mxGeometry>
        </mxCell>
        <mxCell id="v0-v943GRlpw8a3xK3n0-256" value="Frage, die in case referenziert wird, wird zu currentQuestion" style="rounded=1;whiteSpace=wrap;html=1;labelBackgroundColor=none;fontColor=#000000;fillColor=#ffffff;gradientColor=none;" parent="WIyWlLk6GJQsqaUBKTNV-1" vertex="1">
          <mxGeometry x="700" y="3385" width="120" height="70" as="geometry" />
        </mxCell>
        <mxCell id="v0-v943GRlpw8a3xK3n0-264" value="" style="edgeStyle=orthogonalEdgeStyle;rounded=0;orthogonalLoop=1;jettySize=auto;html=1;fontColor=#000000;endArrow=classic;endFill=1;" parent="WIyWlLk6GJQsqaUBKTNV-1" source="v0-v943GRlpw8a3xK3n0-262" target="v0-v943GRlpw8a3xK3n0-263" edge="1">
          <mxGeometry relative="1" as="geometry">
            <Array as="points">
              <mxPoint x="470" y="3900" />
              <mxPoint x="703" y="3900" />
            </Array>
          </mxGeometry>
        </mxCell>
        <mxCell id="v0-v943GRlpw8a3xK3n0-262" value="&lt;span&gt;Antworten in baseModel werden&amp;nbsp; in Model geladen&lt;/span&gt;" style="rounded=1;whiteSpace=wrap;html=1;labelBackgroundColor=none;fontColor=#000000;fillColor=#ffffff;gradientColor=none;" parent="WIyWlLk6GJQsqaUBKTNV-1" vertex="1">
          <mxGeometry x="410" y="3820" width="120" height="60" as="geometry" />
        </mxCell>
        <mxCell id="v0-v943GRlpw8a3xK3n0-269" value="" style="edgeStyle=orthogonalEdgeStyle;rounded=0;orthogonalLoop=1;jettySize=auto;html=1;fontColor=#000000;endArrow=classic;endFill=1;entryX=0;entryY=0.5;entryDx=0;entryDy=0;" parent="WIyWlLk6GJQsqaUBKTNV-1" source="v0-v943GRlpw8a3xK3n0-263" target="v0-v943GRlpw8a3xK3n0-270" edge="1">
          <mxGeometry relative="1" as="geometry">
            <mxPoint x="880" y="4060" as="targetPoint" />
          </mxGeometry>
        </mxCell>
        <mxCell id="v0-v943GRlpw8a3xK3n0-263" value="Model wird aus JSON befüllt" style="rounded=1;whiteSpace=wrap;html=1;labelBackgroundColor=none;fontColor=#000000;fillColor=#ffffff;gradientColor=none;" parent="WIyWlLk6GJQsqaUBKTNV-1" vertex="1">
          <mxGeometry x="642.5" y="4030" width="120" height="60" as="geometry" />
        </mxCell>
        <mxCell id="v0-v943GRlpw8a3xK3n0-267" value="" style="edgeStyle=orthogonalEdgeStyle;rounded=0;orthogonalLoop=1;jettySize=auto;html=1;fontColor=#000000;endArrow=none;endFill=0;entryX=0.816;entryY=-0.039;entryDx=0;entryDy=0;entryPerimeter=0;dashed=1;dashPattern=1 4;" parent="WIyWlLk6GJQsqaUBKTNV-1" source="v0-v943GRlpw8a3xK3n0-265" target="v0-v943GRlpw8a3xK3n0-263" edge="1">
          <mxGeometry relative="1" as="geometry">
            <mxPoint x="690" y="3990" as="targetPoint" />
          </mxGeometry>
        </mxCell>
        <mxCell id="v0-v943GRlpw8a3xK3n0-265" value="&lt;font style=&quot;font-size: 6px&quot;&gt;da die JSON Struktur aus dem Model erstellt wurde sind beide kompatibel&lt;/font&gt;" style="text;html=1;strokeColor=none;fillColor=none;align=center;verticalAlign=middle;whiteSpace=wrap;rounded=0;labelBackgroundColor=none;fontColor=#000000;" parent="WIyWlLk6GJQsqaUBKTNV-1" vertex="1">
          <mxGeometry x="770" y="3970" width="130" height="40" as="geometry" />
        </mxCell>
        <mxCell id="v0-v943GRlpw8a3xK3n0-273" value="" style="edgeStyle=orthogonalEdgeStyle;rounded=0;orthogonalLoop=1;jettySize=auto;html=1;fontColor=#000000;endArrow=classic;endFill=1;" parent="WIyWlLk6GJQsqaUBKTNV-1" source="v0-v943GRlpw8a3xK3n0-270" target="v0-v943GRlpw8a3xK3n0-272" edge="1">
          <mxGeometry relative="1" as="geometry" />
        </mxCell>
        <mxCell id="v0-v943GRlpw8a3xK3n0-274" value="Ja" style="edgeLabel;html=1;align=center;verticalAlign=middle;resizable=0;points=[];fontColor=#000000;labelBackgroundColor=none;" parent="v0-v943GRlpw8a3xK3n0-273" vertex="1" connectable="0">
          <mxGeometry x="-0.7881" relative="1" as="geometry">
            <mxPoint x="10" as="offset" />
          </mxGeometry>
        </mxCell>
        <mxCell id="v0-v943GRlpw8a3xK3n0-279" value="" style="edgeStyle=orthogonalEdgeStyle;rounded=0;orthogonalLoop=1;jettySize=auto;html=1;fontColor=#000000;endArrow=classic;endFill=1;" parent="WIyWlLk6GJQsqaUBKTNV-1" source="v0-v943GRlpw8a3xK3n0-270" target="v0-v943GRlpw8a3xK3n0-278" edge="1">
          <mxGeometry relative="1" as="geometry" />
        </mxCell>
        <mxCell id="v0-v943GRlpw8a3xK3n0-280" value="Nein" style="edgeLabel;html=1;align=center;verticalAlign=middle;resizable=0;points=[];fontColor=#000000;labelBackgroundColor=none;" parent="v0-v943GRlpw8a3xK3n0-279" vertex="1" connectable="0">
          <mxGeometry x="-0.71" relative="1" as="geometry">
            <mxPoint x="4" y="-10" as="offset" />
          </mxGeometry>
        </mxCell>
        <mxCell id="v0-v943GRlpw8a3xK3n0-270" value="Variable selbst Model?" style="rhombus;whiteSpace=wrap;html=1;labelBackgroundColor=none;fontColor=#000000;fillColor=#ffffff;gradientColor=none;" parent="WIyWlLk6GJQsqaUBKTNV-1" vertex="1">
          <mxGeometry x="850" y="4015" width="100" height="90" as="geometry" />
        </mxCell>
        <mxCell id="v0-v943GRlpw8a3xK3n0-276" value="" style="edgeStyle=orthogonalEdgeStyle;rounded=0;orthogonalLoop=1;jettySize=auto;html=1;fontColor=#000000;endArrow=classic;endFill=1;entryX=0.5;entryY=1;entryDx=0;entryDy=0;" parent="WIyWlLk6GJQsqaUBKTNV-1" source="v0-v943GRlpw8a3xK3n0-272" target="v0-v943GRlpw8a3xK3n0-263" edge="1">
          <mxGeometry relative="1" as="geometry">
            <mxPoint x="760" y="4170" as="targetPoint" />
          </mxGeometry>
        </mxCell>
        <mxCell id="v0-v943GRlpw8a3xK3n0-272" value="Model Variable wird über sub-JSON befüllt" style="rounded=1;whiteSpace=wrap;html=1;labelBackgroundColor=none;fontColor=#000000;fillColor=#ffffff;gradientColor=none;" parent="WIyWlLk6GJQsqaUBKTNV-1" vertex="1">
          <mxGeometry x="840" y="4140" width="120" height="60" as="geometry" />
        </mxCell>
        <mxCell id="v0-v943GRlpw8a3xK3n0-277" value="Rekursion" style="text;html=1;strokeColor=none;fillColor=none;align=center;verticalAlign=middle;whiteSpace=wrap;rounded=0;labelBackgroundColor=none;fontColor=#000000;fontStyle=2" parent="WIyWlLk6GJQsqaUBKTNV-1" vertex="1">
          <mxGeometry x="770" y="4105" width="40" height="20" as="geometry" />
        </mxCell>
        <mxCell id="v0-v943GRlpw8a3xK3n0-284" value="" style="edgeStyle=orthogonalEdgeStyle;rounded=0;orthogonalLoop=1;jettySize=auto;html=1;fontColor=#000000;endArrow=classic;endFill=1;" parent="WIyWlLk6GJQsqaUBKTNV-1" source="v0-v943GRlpw8a3xK3n0-278" target="v0-v943GRlpw8a3xK3n0-283" edge="1">
          <mxGeometry relative="1" as="geometry" />
        </mxCell>
        <mxCell id="v0-v943GRlpw8a3xK3n0-278" value="Variable wird mit Wert aus JSON befüllt" style="rounded=1;whiteSpace=wrap;html=1;labelBackgroundColor=none;fontColor=#000000;fillColor=#ffffff;gradientColor=none;" parent="WIyWlLk6GJQsqaUBKTNV-1" vertex="1">
          <mxGeometry x="990" y="4030" width="120" height="60" as="geometry" />
        </mxCell>
        <mxCell id="v0-v943GRlpw8a3xK3n0-282" value="&lt;span style=&quot;font-size: 21px&quot;&gt;&lt;u&gt;JSON in Model umwandeln&lt;/u&gt;&lt;/span&gt;" style="text;html=1;strokeColor=none;fillColor=none;align=center;verticalAlign=middle;whiteSpace=wrap;rounded=0;" parent="WIyWlLk6GJQsqaUBKTNV-1" vertex="1">
          <mxGeometry x="941" y="3930" width="205" height="20" as="geometry" />
        </mxCell>
        <mxCell id="v0-v943GRlpw8a3xK3n0-286" value="" style="edgeStyle=orthogonalEdgeStyle;rounded=0;orthogonalLoop=1;jettySize=auto;html=1;fontColor=#000000;endArrow=classic;endFill=1;entryX=0;entryY=0.5;entryDx=0;entryDy=0;" parent="WIyWlLk6GJQsqaUBKTNV-1" source="v0-v943GRlpw8a3xK3n0-283" target="v0-v943GRlpw8a3xK3n0-289" edge="1">
          <mxGeometry relative="1" as="geometry">
            <mxPoint x="1390" y="4060" as="targetPoint" />
          </mxGeometry>
        </mxCell>
        <mxCell id="v0-v943GRlpw8a3xK3n0-283" value="Model wird Datenbanktabelle umgewandelt / in DB gespeichert" style="rounded=1;whiteSpace=wrap;html=1;labelBackgroundColor=none;fontColor=#000000;fillColor=#ffffff;gradientColor=none;" parent="WIyWlLk6GJQsqaUBKTNV-1" vertex="1">
          <mxGeometry x="1190" y="4030" width="120" height="60" as="geometry" />
        </mxCell>
        <mxCell id="v0-v943GRlpw8a3xK3n0-288" value="" style="edgeStyle=orthogonalEdgeStyle;rounded=0;orthogonalLoop=1;jettySize=auto;html=1;fontColor=#000000;endArrow=classic;endFill=1;" parent="WIyWlLk6GJQsqaUBKTNV-1" target="v0-v943GRlpw8a3xK3n0-287" edge="1">
          <mxGeometry relative="1" as="geometry">
            <mxPoint x="1510" y="4060" as="sourcePoint" />
          </mxGeometry>
        </mxCell>
        <mxCell id="v0-v943GRlpw8a3xK3n0-302" value="Nein" style="edgeLabel;html=1;align=center;verticalAlign=middle;resizable=0;points=[];fontColor=#000000;labelBackgroundColor=none;" parent="v0-v943GRlpw8a3xK3n0-288" vertex="1" connectable="0">
          <mxGeometry x="-0.204" y="-1" relative="1" as="geometry">
            <mxPoint x="-10" y="-11" as="offset" />
          </mxGeometry>
        </mxCell>
        <mxCell id="v0-v943GRlpw8a3xK3n0-296" value="" style="edgeStyle=orthogonalEdgeStyle;rounded=0;orthogonalLoop=1;jettySize=auto;html=1;fontColor=#000000;endArrow=classic;endFill=1;entryX=0;entryY=0.5;entryDx=0;entryDy=0;" parent="WIyWlLk6GJQsqaUBKTNV-1" source="v0-v943GRlpw8a3xK3n0-287" target="v0-v943GRlpw8a3xK3n0-297" edge="1">
          <mxGeometry relative="1" as="geometry">
            <mxPoint x="1810" y="4060" as="targetPoint" />
          </mxGeometry>
        </mxCell>
        <mxCell id="v0-v943GRlpw8a3xK3n0-287" value="Tabelleneintrag wird in Datenbank gespeichert" style="rounded=1;whiteSpace=wrap;html=1;labelBackgroundColor=none;fontColor=#000000;fillColor=#ffffff;gradientColor=none;" parent="WIyWlLk6GJQsqaUBKTNV-1" vertex="1">
          <mxGeometry x="1610" y="4030" width="120" height="60" as="geometry" />
        </mxCell>
        <mxCell id="v0-v943GRlpw8a3xK3n0-291" value="" style="edgeStyle=orthogonalEdgeStyle;rounded=0;orthogonalLoop=1;jettySize=auto;html=1;fontColor=#000000;endArrow=classic;endFill=1;" parent="WIyWlLk6GJQsqaUBKTNV-1" source="v0-v943GRlpw8a3xK3n0-289" target="v0-v943GRlpw8a3xK3n0-290" edge="1">
          <mxGeometry relative="1" as="geometry" />
        </mxCell>
        <mxCell id="v0-v943GRlpw8a3xK3n0-301" value="Ja" style="edgeLabel;html=1;align=center;verticalAlign=middle;resizable=0;points=[];fontColor=#000000;labelBackgroundColor=none;" parent="v0-v943GRlpw8a3xK3n0-291" vertex="1" connectable="0">
          <mxGeometry x="-0.7156" relative="1" as="geometry">
            <mxPoint x="20" y="-1" as="offset" />
          </mxGeometry>
        </mxCell>
        <mxCell id="v0-v943GRlpw8a3xK3n0-289" value="Gehen von Tabelleneintrag Relationen aus?" style="rhombus;whiteSpace=wrap;html=1;labelBackgroundColor=none;fontColor=#000000;fillColor=#ffffff;gradientColor=none;" parent="WIyWlLk6GJQsqaUBKTNV-1" vertex="1">
          <mxGeometry x="1400" y="4005" width="130" height="110" as="geometry" />
        </mxCell>
        <mxCell id="v0-v943GRlpw8a3xK3n0-293" value="" style="edgeStyle=orthogonalEdgeStyle;rounded=0;orthogonalLoop=1;jettySize=auto;html=1;fontColor=#000000;endArrow=classic;endFill=1;entryX=0.5;entryY=1;entryDx=0;entryDy=0;" parent="WIyWlLk6GJQsqaUBKTNV-1" source="v0-v943GRlpw8a3xK3n0-290" target="v0-v943GRlpw8a3xK3n0-283" edge="1">
          <mxGeometry relative="1" as="geometry">
            <mxPoint x="1325" y="4190" as="targetPoint" />
          </mxGeometry>
        </mxCell>
        <mxCell id="v0-v943GRlpw8a3xK3n0-290" value="Sub-Model (die Relation) wird über get Methode aus Model extrahiert" style="rounded=1;whiteSpace=wrap;html=1;labelBackgroundColor=none;fontColor=#000000;fillColor=#ffffff;gradientColor=none;" parent="WIyWlLk6GJQsqaUBKTNV-1" vertex="1">
          <mxGeometry x="1405" y="4160" width="120" height="60" as="geometry" />
        </mxCell>
        <mxCell id="v0-v943GRlpw8a3xK3n0-294" value="Rekursion" style="text;html=1;strokeColor=none;fillColor=none;align=center;verticalAlign=middle;whiteSpace=wrap;rounded=0;labelBackgroundColor=none;fontColor=#000000;fontStyle=2" parent="WIyWlLk6GJQsqaUBKTNV-1" vertex="1">
          <mxGeometry x="1330" y="4120" width="40" height="20" as="geometry" />
        </mxCell>
        <mxCell id="v0-v943GRlpw8a3xK3n0-300" value="" style="edgeStyle=orthogonalEdgeStyle;rounded=0;orthogonalLoop=1;jettySize=auto;html=1;fontColor=#000000;endArrow=classic;endFill=1;" parent="WIyWlLk6GJQsqaUBKTNV-1" source="v0-v943GRlpw8a3xK3n0-297" target="v0-v943GRlpw8a3xK3n0-299" edge="1">
          <mxGeometry relative="1" as="geometry" />
        </mxCell>
        <mxCell id="v0-v943GRlpw8a3xK3n0-306" value="Nein" style="edgeLabel;html=1;align=center;verticalAlign=middle;resizable=0;points=[];fontColor=#000000;labelBackgroundColor=none;" parent="v0-v943GRlpw8a3xK3n0-300" vertex="1" connectable="0">
          <mxGeometry x="-0.7133" y="1" relative="1" as="geometry">
            <mxPoint y="-9" as="offset" />
          </mxGeometry>
        </mxCell>
        <mxCell id="v0-v943GRlpw8a3xK3n0-304" value="" style="edgeStyle=orthogonalEdgeStyle;rounded=0;orthogonalLoop=1;jettySize=auto;html=1;fontColor=#000000;endArrow=classic;endFill=1;" parent="WIyWlLk6GJQsqaUBKTNV-1" source="v0-v943GRlpw8a3xK3n0-297" target="v0-v943GRlpw8a3xK3n0-303" edge="1">
          <mxGeometry relative="1" as="geometry" />
        </mxCell>
        <mxCell id="v0-v943GRlpw8a3xK3n0-305" value="Ja" style="edgeLabel;html=1;align=center;verticalAlign=middle;resizable=0;points=[];fontColor=#000000;labelBackgroundColor=none;" parent="v0-v943GRlpw8a3xK3n0-304" vertex="1" connectable="0">
          <mxGeometry x="-0.7224" relative="1" as="geometry">
            <mxPoint x="25" as="offset" />
          </mxGeometry>
        </mxCell>
        <mxCell id="v0-v943GRlpw8a3xK3n0-297" value="Primärschlüssel vorhanden?" style="rhombus;whiteSpace=wrap;html=1;labelBackgroundColor=none;fontColor=#000000;fillColor=#ffffff;gradientColor=none;" parent="WIyWlLk6GJQsqaUBKTNV-1" vertex="1">
          <mxGeometry x="1810" y="4012.5" width="110" height="95" as="geometry" />
        </mxCell>
        <mxCell id="v0-v943GRlpw8a3xK3n0-308" value="" style="edgeStyle=orthogonalEdgeStyle;rounded=0;orthogonalLoop=1;jettySize=auto;html=1;fontColor=#000000;endArrow=classic;endFill=1;entryX=1;entryY=0.5;entryDx=0;entryDy=0;" parent="WIyWlLk6GJQsqaUBKTNV-1" source="v0-v943GRlpw8a3xK3n0-299" target="v0-v943GRlpw8a3xK3n0-303" edge="1">
          <mxGeometry relative="1" as="geometry">
            <mxPoint x="2040" y="4170" as="targetPoint" />
            <Array as="points">
              <mxPoint x="2040" y="4180" />
            </Array>
          </mxGeometry>
        </mxCell>
        <mxCell id="v0-v943GRlpw8a3xK3n0-299" value="ID wird durch JPA&amp;nbsp; erstellt" style="rounded=1;whiteSpace=wrap;html=1;labelBackgroundColor=none;fontColor=#000000;fillColor=#ffffff;gradientColor=none;" parent="WIyWlLk6GJQsqaUBKTNV-1" vertex="1">
          <mxGeometry x="1980" y="4030" width="120" height="60" as="geometry" />
        </mxCell>
        <mxCell id="v0-v943GRlpw8a3xK3n0-310" value="" style="edgeStyle=orthogonalEdgeStyle;rounded=0;orthogonalLoop=1;jettySize=auto;html=1;fontColor=#000000;endArrow=classic;endFill=1;" parent="WIyWlLk6GJQsqaUBKTNV-1" source="v0-v943GRlpw8a3xK3n0-303" target="v0-v943GRlpw8a3xK3n0-309" edge="1">
          <mxGeometry relative="1" as="geometry" />
        </mxCell>
        <mxCell id="v0-v943GRlpw8a3xK3n0-303" value="Tabelleneintrag wird in Tabelle gepusht" style="rounded=1;whiteSpace=wrap;html=1;labelBackgroundColor=none;fontColor=#000000;fillColor=#ffffff;gradientColor=none;" parent="WIyWlLk6GJQsqaUBKTNV-1" vertex="1">
          <mxGeometry x="1805" y="4150" width="120" height="60" as="geometry" />
        </mxCell>
        <mxCell id="v0-v943GRlpw8a3xK3n0-313" value="" style="edgeStyle=orthogonalEdgeStyle;rounded=0;orthogonalLoop=1;jettySize=auto;html=1;fontColor=#000000;endArrow=classic;endFill=1;" parent="WIyWlLk6GJQsqaUBKTNV-1" source="v0-v943GRlpw8a3xK3n0-309" target="v0-v943GRlpw8a3xK3n0-312" edge="1">
          <mxGeometry relative="1" as="geometry">
            <Array as="points">
              <mxPoint x="1930" y="4298" />
              <mxPoint x="1930" y="4298" />
            </Array>
          </mxGeometry>
        </mxCell>
        <mxCell id="v0-v943GRlpw8a3xK3n0-315" value="Nein" style="edgeLabel;html=1;align=center;verticalAlign=middle;resizable=0;points=[];fontColor=#000000;labelBackgroundColor=none;" parent="v0-v943GRlpw8a3xK3n0-313" vertex="1" connectable="0">
          <mxGeometry x="-0.7076" y="1" relative="1" as="geometry">
            <mxPoint x="3" y="-7" as="offset" />
          </mxGeometry>
        </mxCell>
        <mxCell id="v0-v943GRlpw8a3xK3n0-314" value="" style="edgeStyle=orthogonalEdgeStyle;rounded=0;orthogonalLoop=1;jettySize=auto;html=1;fontColor=#000000;endArrow=classic;endFill=1;" parent="WIyWlLk6GJQsqaUBKTNV-1" source="v0-v943GRlpw8a3xK3n0-309" target="v0-v943GRlpw8a3xK3n0-311" edge="1">
          <mxGeometry relative="1" as="geometry">
            <Array as="points">
              <mxPoint x="1865" y="4410" />
            </Array>
          </mxGeometry>
        </mxCell>
        <mxCell id="v0-v943GRlpw8a3xK3n0-321" value="Ja" style="edgeLabel;html=1;align=center;verticalAlign=middle;resizable=0;points=[];fontColor=#000000;labelBackgroundColor=none;" parent="v0-v943GRlpw8a3xK3n0-314" vertex="1" connectable="0">
          <mxGeometry x="-0.9813" relative="1" as="geometry">
            <mxPoint x="15" as="offset" />
          </mxGeometry>
        </mxCell>
        <mxCell id="v0-v943GRlpw8a3xK3n0-309" value="Speichern erfolgreich?" style="rhombus;whiteSpace=wrap;html=1;labelBackgroundColor=none;fontColor=#000000;fillColor=#ffffff;gradientColor=none;" parent="WIyWlLk6GJQsqaUBKTNV-1" vertex="1">
          <mxGeometry x="1810" y="4250" width="110" height="95" as="geometry" />
        </mxCell>
        <mxCell id="v0-v943GRlpw8a3xK3n0-319" value="" style="edgeStyle=orthogonalEdgeStyle;rounded=0;orthogonalLoop=1;jettySize=auto;html=1;fontColor=#000000;endArrow=classic;endFill=1;" parent="WIyWlLk6GJQsqaUBKTNV-1" source="v0-v943GRlpw8a3xK3n0-311" target="v0-v943GRlpw8a3xK3n0-318" edge="1">
          <mxGeometry relative="1" as="geometry" />
        </mxCell>
        <mxCell id="v0-v943GRlpw8a3xK3n0-311" value="ProcessID wird gelesen" style="rounded=1;whiteSpace=wrap;html=1;labelBackgroundColor=none;fontColor=#000000;fillColor=#ffffff;gradientColor=none;" parent="WIyWlLk6GJQsqaUBKTNV-1" vertex="1">
          <mxGeometry x="400" y="4380" width="160" height="60" as="geometry" />
        </mxCell>
        <mxCell id="v0-v943GRlpw8a3xK3n0-317" value="" style="edgeStyle=orthogonalEdgeStyle;rounded=0;orthogonalLoop=1;jettySize=auto;html=1;fontColor=#000000;endArrow=classic;endFill=1;" parent="WIyWlLk6GJQsqaUBKTNV-1" source="v0-v943GRlpw8a3xK3n0-312" target="v0-v943GRlpw8a3xK3n0-316" edge="1">
          <mxGeometry relative="1" as="geometry" />
        </mxCell>
        <mxCell id="v0-v943GRlpw8a3xK3n0-312" value="DBSavingException&amp;nbsp; wird geworfen" style="rounded=1;whiteSpace=wrap;html=1;labelBackgroundColor=none;fontColor=#000000;fillColor=#ffffff;gradientColor=none;" parent="WIyWlLk6GJQsqaUBKTNV-1" vertex="1">
          <mxGeometry x="1970" y="4267.5" width="120" height="60" as="geometry" />
        </mxCell>
        <mxCell id="v0-v943GRlpw8a3xK3n0-316" value="ErrorPopUp" style="rounded=1;whiteSpace=wrap;html=1;labelBackgroundColor=none;fontColor=#000000;fillColor=#ffffff;gradientColor=none;" parent="WIyWlLk6GJQsqaUBKTNV-1" vertex="1">
          <mxGeometry x="2130" y="4267.5" width="120" height="60" as="geometry" />
        </mxCell>
        <mxCell id="v0-v943GRlpw8a3xK3n0-323" value="" style="edgeStyle=orthogonalEdgeStyle;rounded=0;orthogonalLoop=1;jettySize=auto;html=1;fontColor=#000000;endArrow=classic;endFill=1;" parent="WIyWlLk6GJQsqaUBKTNV-1" source="v0-v943GRlpw8a3xK3n0-318" target="v0-v943GRlpw8a3xK3n0-322" edge="1">
          <mxGeometry relative="1" as="geometry" />
        </mxCell>
        <mxCell id="v0-v943GRlpw8a3xK3n0-318" value="ChangeAddressShowToken View wird geladen" style="rounded=1;whiteSpace=wrap;html=1;labelBackgroundColor=none;fontColor=#000000;fillColor=#ffffff;gradientColor=none;" parent="WIyWlLk6GJQsqaUBKTNV-1" vertex="1">
          <mxGeometry x="400" y="4500" width="160" height="60" as="geometry" />
        </mxCell>
        <mxCell id="v0-v943GRlpw8a3xK3n0-325" value="" style="edgeStyle=orthogonalEdgeStyle;rounded=0;orthogonalLoop=1;jettySize=auto;html=1;fontColor=#000000;endArrow=classic;endFill=1;" parent="WIyWlLk6GJQsqaUBKTNV-1" source="v0-v943GRlpw8a3xK3n0-322" target="v0-v943GRlpw8a3xK3n0-324" edge="1">
          <mxGeometry relative="1" as="geometry" />
        </mxCell>
        <mxCell id="v0-v943GRlpw8a3xK3n0-322" value="ProcessID wird angezeigt, mit der man den Prozessstatus auslesen kann" style="rounded=1;whiteSpace=wrap;html=1;labelBackgroundColor=none;fontColor=#000000;fillColor=#ffffff;gradientColor=none;" parent="WIyWlLk6GJQsqaUBKTNV-1" vertex="1">
          <mxGeometry x="400" y="4640" width="160" height="60" as="geometry" />
        </mxCell>
        <mxCell id="v0-v943GRlpw8a3xK3n0-327" value="" style="edgeStyle=orthogonalEdgeStyle;rounded=0;orthogonalLoop=1;jettySize=auto;html=1;fontColor=#000000;endArrow=classic;endFill=1;entryX=0;entryY=0.5;entryDx=0;entryDy=0;" parent="WIyWlLk6GJQsqaUBKTNV-1" source="v0-v943GRlpw8a3xK3n0-324" target="v0-v943GRlpw8a3xK3n0-35" edge="1">
          <mxGeometry relative="1" as="geometry">
            <mxPoint x="300" y="4540" as="targetPoint" />
            <Array as="points">
              <mxPoint x="90" y="4810" />
              <mxPoint x="90" y="640" />
            </Array>
          </mxGeometry>
        </mxCell>
        <mxCell id="v0-v943GRlpw8a3xK3n0-324" value="okButton wird gedrückt" style="rounded=1;whiteSpace=wrap;html=1;labelBackgroundColor=none;fontColor=#000000;fillColor=#ffffff;gradientColor=none;" parent="WIyWlLk6GJQsqaUBKTNV-1" vertex="1">
          <mxGeometry x="400" y="4780" width="160" height="60" as="geometry" />
        </mxCell>
        <mxCell id="v0-v943GRlpw8a3xK3n0-333" value="" style="edgeStyle=orthogonalEdgeStyle;rounded=0;orthogonalLoop=1;jettySize=auto;html=1;fontColor=#000000;endArrow=classic;endFill=1;entryX=0;entryY=0.5;entryDx=0;entryDy=0;" parent="WIyWlLk6GJQsqaUBKTNV-1" source="v0-v943GRlpw8a3xK3n0-330" target="v0-v943GRlpw8a3xK3n0-334" edge="1">
          <mxGeometry relative="1" as="geometry">
            <mxPoint x="1920" y="1672.5" as="targetPoint" />
          </mxGeometry>
        </mxCell>
        <mxCell id="v0-v943GRlpw8a3xK3n0-330" value="Variablen der Model Klasse werden ermittelt" style="whiteSpace=wrap;html=1;rounded=1;shadow=0;strokeWidth=1;glass=0;" parent="WIyWlLk6GJQsqaUBKTNV-1" vertex="1">
          <mxGeometry x="1650" y="1642.5" width="190" height="60" as="geometry" />
        </mxCell>
        <mxCell id="v0-v943GRlpw8a3xK3n0-336" value="" style="edgeStyle=orthogonalEdgeStyle;rounded=0;orthogonalLoop=1;jettySize=auto;html=1;fontColor=#000000;endArrow=classic;endFill=1;entryX=1;entryY=0.5;entryDx=0;entryDy=0;" parent="WIyWlLk6GJQsqaUBKTNV-1" source="v0-v943GRlpw8a3xK3n0-334" target="v0-v943GRlpw8a3xK3n0-343" edge="1">
          <mxGeometry relative="1" as="geometry">
            <mxPoint x="1960.034482758621" y="1750" as="targetPoint" />
            <Array as="points">
              <mxPoint x="1960" y="1770" />
            </Array>
          </mxGeometry>
        </mxCell>
        <mxCell id="v0-v943GRlpw8a3xK3n0-337" value="Ja" style="edgeLabel;html=1;align=center;verticalAlign=middle;resizable=0;points=[];fontColor=#000000;" parent="v0-v943GRlpw8a3xK3n0-336" vertex="1" connectable="0">
          <mxGeometry x="-0.8539" relative="1" as="geometry">
            <mxPoint x="10" as="offset" />
          </mxGeometry>
        </mxCell>
        <mxCell id="v0-v943GRlpw8a3xK3n0-341" value="" style="edgeStyle=orthogonalEdgeStyle;rounded=0;orthogonalLoop=1;jettySize=auto;html=1;fontColor=#000000;endArrow=classic;endFill=1;" parent="WIyWlLk6GJQsqaUBKTNV-1" source="v0-v943GRlpw8a3xK3n0-334" target="v0-v943GRlpw8a3xK3n0-340" edge="1">
          <mxGeometry relative="1" as="geometry" />
        </mxCell>
        <mxCell id="v0-v943GRlpw8a3xK3n0-342" value="Nein" style="edgeLabel;html=1;align=center;verticalAlign=middle;resizable=0;points=[];fontColor=#000000;" parent="v0-v943GRlpw8a3xK3n0-341" vertex="1" connectable="0">
          <mxGeometry x="-0.2613" y="-2" relative="1" as="geometry">
            <mxPoint x="-1" y="-15" as="offset" />
          </mxGeometry>
        </mxCell>
        <mxCell id="v0-v943GRlpw8a3xK3n0-334" value="Ist Variable &lt;br&gt;selbst Model?" style="rhombus;whiteSpace=wrap;html=1;labelBackgroundColor=none;fontColor=#000000;fillColor=#ffffff;gradientColor=none;" parent="WIyWlLk6GJQsqaUBKTNV-1" vertex="1">
          <mxGeometry x="1910" y="1623.75" width="100" height="97.5" as="geometry" />
        </mxCell>
        <mxCell id="v0-v943GRlpw8a3xK3n0-339" value="Rekursion" style="text;html=1;strokeColor=none;fillColor=none;align=center;verticalAlign=middle;whiteSpace=wrap;rounded=0;labelBackgroundColor=none;fontColor=#000000;fontStyle=2" parent="WIyWlLk6GJQsqaUBKTNV-1" vertex="1">
          <mxGeometry x="1840" y="1710" width="40" height="20" as="geometry" />
        </mxCell>
        <mxCell id="v0-v943GRlpw8a3xK3n0-349" value="" style="edgeStyle=orthogonalEdgeStyle;rounded=0;orthogonalLoop=1;jettySize=auto;html=1;fontColor=#000000;endArrow=classic;endFill=1;" parent="WIyWlLk6GJQsqaUBKTNV-1" source="v0-v943GRlpw8a3xK3n0-340" target="v0-v943GRlpw8a3xK3n0-348" edge="1">
          <mxGeometry relative="1" as="geometry" />
        </mxCell>
        <mxCell id="v0-v943GRlpw8a3xK3n0-340" value="Variable wird als Key in JSON Datei gesetzt und mit null befüllt" style="whiteSpace=wrap;html=1;rounded=1;shadow=0;strokeWidth=1;glass=0;" parent="WIyWlLk6GJQsqaUBKTNV-1" vertex="1">
          <mxGeometry x="2068" y="1642.5" width="190" height="60" as="geometry" />
        </mxCell>
        <mxCell id="v0-v943GRlpw8a3xK3n0-345" value="" style="edgeStyle=orthogonalEdgeStyle;rounded=0;orthogonalLoop=1;jettySize=auto;html=1;fontColor=#000000;endArrow=classic;endFill=1;entryX=0.25;entryY=1;entryDx=0;entryDy=0;" parent="WIyWlLk6GJQsqaUBKTNV-1" source="v0-v943GRlpw8a3xK3n0-343" target="v0-v943GRlpw8a3xK3n0-330" edge="1">
          <mxGeometry relative="1" as="geometry">
            <mxPoint x="1660" y="1770" as="targetPoint" />
            <Array as="points">
              <mxPoint x="1697" y="1770" />
            </Array>
          </mxGeometry>
        </mxCell>
        <mxCell id="v0-v943GRlpw8a3xK3n0-343" value="Variable wird als Key in JSON Daeti gesetzt; der Wert ist ein JSON welches das Model der Variable repräsentiert" style="whiteSpace=wrap;html=1;rounded=1;shadow=0;strokeWidth=1;glass=0;" parent="WIyWlLk6GJQsqaUBKTNV-1" vertex="1">
          <mxGeometry x="1740" y="1740" width="170" height="60" as="geometry" />
        </mxCell>
        <mxCell id="v0-v943GRlpw8a3xK3n0-347" value="&lt;span style=&quot;font-size: 21px&quot;&gt;&lt;u&gt;Model in JSON umwandeln&lt;/u&gt;&lt;/span&gt;" style="text;html=1;strokeColor=none;fillColor=none;align=center;verticalAlign=middle;whiteSpace=wrap;rounded=0;" parent="WIyWlLk6GJQsqaUBKTNV-1" vertex="1">
          <mxGeometry x="1660" y="1590" width="205" height="20" as="geometry" />
        </mxCell>
        <mxCell id="v0-v943GRlpw8a3xK3n0-351" value="" style="edgeStyle=orthogonalEdgeStyle;rounded=0;orthogonalLoop=1;jettySize=auto;html=1;fontColor=#000000;endArrow=classic;endFill=1;entryX=0.5;entryY=0;entryDx=0;entryDy=0;" parent="WIyWlLk6GJQsqaUBKTNV-1" source="v0-v943GRlpw8a3xK3n0-348" target="v0-v943GRlpw8a3xK3n0-116" edge="1">
          <mxGeometry relative="1" as="geometry">
            <mxPoint x="2163" y="1880" as="targetPoint" />
            <Array as="points">
              <mxPoint x="2163" y="1860" />
              <mxPoint x="470" y="1860" />
            </Array>
          </mxGeometry>
        </mxCell>
        <mxCell id="v0-v943GRlpw8a3xK3n0-348" value="letztendliches JSON Objekt wird gespeichert" style="whiteSpace=wrap;html=1;rounded=1;shadow=0;strokeWidth=1;glass=0;" parent="WIyWlLk6GJQsqaUBKTNV-1" vertex="1">
          <mxGeometry x="2068" y="1740" width="190" height="60" as="geometry" />
        </mxCell>
        <mxCell id="v0-v943GRlpw8a3xK3n0-355" value="" style="edgeStyle=orthogonalEdgeStyle;rounded=0;orthogonalLoop=1;jettySize=auto;html=1;fontColor=#000000;endArrow=classic;endFill=1;entryX=0.5;entryY=0;entryDx=0;entryDy=0;" parent="WIyWlLk6GJQsqaUBKTNV-1" source="v0-v943GRlpw8a3xK3n0-352" target="v0-v943GRlpw8a3xK3n0-356" edge="1">
          <mxGeometry relative="1" as="geometry">
            <mxPoint x="2910" y="1509.9999999999995" as="targetPoint" />
          </mxGeometry>
        </mxCell>
        <mxCell id="v0-v943GRlpw8a3xK3n0-352" value="Token (ProcessID) wird eingegeben und gesucht" style="whiteSpace=wrap;html=1;rounded=1;shadow=0;strokeWidth=1;glass=0;" parent="WIyWlLk6GJQsqaUBKTNV-1" vertex="1">
          <mxGeometry x="2850" y="1370" width="120" height="60" as="geometry" />
        </mxCell>
        <mxCell id="v0-v943GRlpw8a3xK3n0-359" value="" style="edgeStyle=orthogonalEdgeStyle;rounded=0;orthogonalLoop=1;jettySize=auto;html=1;fontColor=#000000;endArrow=classic;endFill=1;" parent="WIyWlLk6GJQsqaUBKTNV-1" source="v0-v943GRlpw8a3xK3n0-356" target="v0-v943GRlpw8a3xK3n0-358" edge="1">
          <mxGeometry relative="1" as="geometry" />
        </mxCell>
        <mxCell id="v0-v943GRlpw8a3xK3n0-360" value="Nein" style="edgeLabel;html=1;align=center;verticalAlign=middle;resizable=0;points=[];fontColor=#000000;" parent="v0-v943GRlpw8a3xK3n0-359" vertex="1" connectable="0">
          <mxGeometry x="-0.7" relative="1" as="geometry">
            <mxPoint x="4" y="-10" as="offset" />
          </mxGeometry>
        </mxCell>
        <mxCell id="v0-v943GRlpw8a3xK3n0-362" value="" style="edgeStyle=orthogonalEdgeStyle;rounded=0;orthogonalLoop=1;jettySize=auto;html=1;fontColor=#000000;endArrow=classic;endFill=1;" parent="WIyWlLk6GJQsqaUBKTNV-1" source="v0-v943GRlpw8a3xK3n0-356" target="v0-v943GRlpw8a3xK3n0-361" edge="1">
          <mxGeometry relative="1" as="geometry" />
        </mxCell>
        <mxCell id="v0-v943GRlpw8a3xK3n0-363" value="Ja" style="edgeLabel;html=1;align=center;verticalAlign=middle;resizable=0;points=[];fontColor=#000000;" parent="v0-v943GRlpw8a3xK3n0-362" vertex="1" connectable="0">
          <mxGeometry x="-0.8711" y="-1" relative="1" as="geometry">
            <mxPoint x="11" as="offset" />
          </mxGeometry>
        </mxCell>
        <mxCell id="v0-v943GRlpw8a3xK3n0-356" value="ProcessID Zahlenwert" style="rhombus;whiteSpace=wrap;html=1;labelBackgroundColor=none;fontColor=#000000;fillColor=#ffffff;gradientColor=none;" parent="WIyWlLk6GJQsqaUBKTNV-1" vertex="1">
          <mxGeometry x="2860" y="1490" width="100" height="100" as="geometry" />
        </mxCell>
        <mxCell id="v0-v943GRlpw8a3xK3n0-358" value="ErrorPopUp" style="whiteSpace=wrap;html=1;rounded=1;shadow=0;strokeWidth=1;glass=0;" parent="WIyWlLk6GJQsqaUBKTNV-1" vertex="1">
          <mxGeometry x="3000" y="1640" width="120" height="60" as="geometry" />
        </mxCell>
        <mxCell id="v0-v943GRlpw8a3xK3n0-365" value="" style="edgeStyle=orthogonalEdgeStyle;rounded=0;orthogonalLoop=1;jettySize=auto;html=1;fontColor=#000000;endArrow=classic;endFill=1;" parent="WIyWlLk6GJQsqaUBKTNV-1" source="v0-v943GRlpw8a3xK3n0-361" edge="1">
          <mxGeometry relative="1" as="geometry">
            <mxPoint x="3000" y="1670" as="targetPoint" />
          </mxGeometry>
        </mxCell>
        <mxCell id="v0-v943GRlpw8a3xK3n0-368" value="" style="edgeStyle=orthogonalEdgeStyle;rounded=0;orthogonalLoop=1;jettySize=auto;html=1;fontColor=#000000;endArrow=classic;endFill=1;" parent="WIyWlLk6GJQsqaUBKTNV-1" source="v0-v943GRlpw8a3xK3n0-361" target="v0-v943GRlpw8a3xK3n0-367" edge="1">
          <mxGeometry relative="1" as="geometry" />
        </mxCell>
        <mxCell id="v0-v943GRlpw8a3xK3n0-369" value="Ja" style="edgeLabel;html=1;align=center;verticalAlign=middle;resizable=0;points=[];fontColor=#000000;" parent="v0-v943GRlpw8a3xK3n0-368" vertex="1" connectable="0">
          <mxGeometry x="-0.7" relative="1" as="geometry">
            <mxPoint x="10" as="offset" />
          </mxGeometry>
        </mxCell>
        <mxCell id="v0-v943GRlpw8a3xK3n0-361" value="ProcessID in DB vorhanden?" style="rhombus;whiteSpace=wrap;html=1;labelBackgroundColor=none;fontColor=#000000;fillColor=#ffffff;gradientColor=none;" parent="WIyWlLk6GJQsqaUBKTNV-1" vertex="1">
          <mxGeometry x="2860" y="1620" width="100" height="100" as="geometry" />
        </mxCell>
        <mxCell id="v0-v943GRlpw8a3xK3n0-371" value="" style="edgeStyle=orthogonalEdgeStyle;rounded=0;orthogonalLoop=1;jettySize=auto;html=1;fontColor=#000000;endArrow=classic;endFill=1;" parent="WIyWlLk6GJQsqaUBKTNV-1" source="v0-v943GRlpw8a3xK3n0-367" target="v0-v943GRlpw8a3xK3n0-370" edge="1">
          <mxGeometry relative="1" as="geometry" />
        </mxCell>
        <mxCell id="v0-v943GRlpw8a3xK3n0-367" value="Staus werden aus DB geladen" style="whiteSpace=wrap;html=1;rounded=1;shadow=0;strokeWidth=1;glass=0;" parent="WIyWlLk6GJQsqaUBKTNV-1" vertex="1">
          <mxGeometry x="2850" y="1760" width="120" height="60" as="geometry" />
        </mxCell>
        <mxCell id="v0-v943GRlpw8a3xK3n0-373" value="" style="edgeStyle=orthogonalEdgeStyle;rounded=0;orthogonalLoop=1;jettySize=auto;html=1;fontColor=#000000;endArrow=classic;endFill=1;" parent="WIyWlLk6GJQsqaUBKTNV-1" source="v0-v943GRlpw8a3xK3n0-370" target="v0-v943GRlpw8a3xK3n0-372" edge="1">
          <mxGeometry relative="1" as="geometry" />
        </mxCell>
        <mxCell id="v0-v943GRlpw8a3xK3n0-370" value="Die Status werden angezeigt" style="whiteSpace=wrap;html=1;rounded=1;shadow=0;strokeWidth=1;glass=0;" parent="WIyWlLk6GJQsqaUBKTNV-1" vertex="1">
          <mxGeometry x="2850" y="1890" width="120" height="60" as="geometry" />
        </mxCell>
        <mxCell id="v0-v943GRlpw8a3xK3n0-375" value="" style="edgeStyle=orthogonalEdgeStyle;rounded=0;orthogonalLoop=1;jettySize=auto;html=1;fontColor=#000000;endArrow=classic;endFill=1;" parent="WIyWlLk6GJQsqaUBKTNV-1" source="v0-v943GRlpw8a3xK3n0-372" target="v0-v943GRlpw8a3xK3n0-374" edge="1">
          <mxGeometry relative="1" as="geometry" />
        </mxCell>
        <mxCell id="v0-v943GRlpw8a3xK3n0-376" value="Nein" style="edgeLabel;html=1;align=center;verticalAlign=middle;resizable=0;points=[];fontColor=#000000;" parent="v0-v943GRlpw8a3xK3n0-375" vertex="1" connectable="0">
          <mxGeometry x="-0.71" y="1" relative="1" as="geometry">
            <mxPoint x="4" y="-9" as="offset" />
          </mxGeometry>
        </mxCell>
        <mxCell id="v0-v943GRlpw8a3xK3n0-378" value="" style="edgeStyle=orthogonalEdgeStyle;rounded=0;orthogonalLoop=1;jettySize=auto;html=1;fontColor=#000000;endArrow=classic;endFill=1;" parent="WIyWlLk6GJQsqaUBKTNV-1" source="v0-v943GRlpw8a3xK3n0-372" target="v0-v943GRlpw8a3xK3n0-377" edge="1">
          <mxGeometry relative="1" as="geometry" />
        </mxCell>
        <mxCell id="v0-v943GRlpw8a3xK3n0-379" value="Ja" style="edgeLabel;html=1;align=center;verticalAlign=middle;resizable=0;points=[];fontColor=#000000;" parent="v0-v943GRlpw8a3xK3n0-378" vertex="1" connectable="0">
          <mxGeometry x="-0.8489" relative="1" as="geometry">
            <mxPoint x="10" as="offset" />
          </mxGeometry>
        </mxCell>
        <mxCell id="v0-v943GRlpw8a3xK3n0-372" value="Staus true?" style="rhombus;whiteSpace=wrap;html=1;labelBackgroundColor=none;fontColor=#000000;fillColor=#ffffff;gradientColor=none;" parent="WIyWlLk6GJQsqaUBKTNV-1" vertex="1">
          <mxGeometry x="2870" y="1990" width="80" height="80" as="geometry" />
        </mxCell>
        <mxCell id="v0-v943GRlpw8a3xK3n0-374" value="Kreuz neben Status" style="whiteSpace=wrap;html=1;rounded=1;shadow=0;strokeWidth=1;glass=0;" parent="WIyWlLk6GJQsqaUBKTNV-1" vertex="1">
          <mxGeometry x="2990" y="2100" width="120" height="60" as="geometry" />
        </mxCell>
        <mxCell id="v0-v943GRlpw8a3xK3n0-377" value="Haken neben Status" style="whiteSpace=wrap;html=1;rounded=1;shadow=0;strokeWidth=1;glass=0;" parent="WIyWlLk6GJQsqaUBKTNV-1" vertex="1">
          <mxGeometry x="2850" y="2100" width="120" height="60" as="geometry" />
        </mxCell>
        <mxCell id="CHRmbYXMk_RVhMR8-_uH-2" value="" style="edgeStyle=orthogonalEdgeStyle;rounded=0;orthogonalLoop=1;jettySize=auto;html=1;" edge="1" parent="WIyWlLk6GJQsqaUBKTNV-1" source="CHRmbYXMk_RVhMR8-_uH-0" target="CHRmbYXMk_RVhMR8-_uH-1">
          <mxGeometry relative="1" as="geometry" />
        </mxCell>
        <mxCell id="CHRmbYXMk_RVhMR8-_uH-0" value="Sprach Button wird gedrückt" style="rounded=1;whiteSpace=wrap;html=1;" vertex="1" parent="WIyWlLk6GJQsqaUBKTNV-1">
          <mxGeometry x="2027.5" y="415" width="120" height="60" as="geometry" />
        </mxCell>
        <mxCell id="CHRmbYXMk_RVhMR8-_uH-4" value="" style="edgeStyle=orthogonalEdgeStyle;rounded=0;orthogonalLoop=1;jettySize=auto;html=1;" edge="1" parent="WIyWlLk6GJQsqaUBKTNV-1" source="CHRmbYXMk_RVhMR8-_uH-1" target="CHRmbYXMk_RVhMR8-_uH-3">
          <mxGeometry relative="1" as="geometry" />
        </mxCell>
        <mxCell id="CHRmbYXMk_RVhMR8-_uH-1" value="hinterlegte Sprache wird als Sprache in ScreenHandler gespeichert" style="rounded=1;whiteSpace=wrap;html=1;" vertex="1" parent="WIyWlLk6GJQsqaUBKTNV-1">
          <mxGeometry x="2027.5" y="515" width="120" height="60" as="geometry" />
        </mxCell>
        <mxCell id="CHRmbYXMk_RVhMR8-_uH-6" value="" style="edgeStyle=orthogonalEdgeStyle;rounded=0;orthogonalLoop=1;jettySize=auto;html=1;" edge="1" parent="WIyWlLk6GJQsqaUBKTNV-1" source="CHRmbYXMk_RVhMR8-_uH-3" target="CHRmbYXMk_RVhMR8-_uH-5">
          <mxGeometry relative="1" as="geometry" />
        </mxCell>
        <mxCell id="CHRmbYXMk_RVhMR8-_uH-3" value="momentane View wird neu geladen" style="rounded=1;whiteSpace=wrap;html=1;" vertex="1" parent="WIyWlLk6GJQsqaUBKTNV-1">
          <mxGeometry x="2027.5" y="615" width="120" height="60" as="geometry" />
        </mxCell>
        <mxCell id="CHRmbYXMk_RVhMR8-_uH-8" value="" style="edgeStyle=orthogonalEdgeStyle;rounded=0;orthogonalLoop=1;jettySize=auto;html=1;" edge="1" parent="WIyWlLk6GJQsqaUBKTNV-1" source="CHRmbYXMk_RVhMR8-_uH-5" target="CHRmbYXMk_RVhMR8-_uH-7">
          <mxGeometry relative="1" as="geometry" />
        </mxCell>
        <mxCell id="CHRmbYXMk_RVhMR8-_uH-5" value="I18nHandler wird die angepasste&amp;nbsp; Sprache übergeben" style="rounded=1;whiteSpace=wrap;html=1;" vertex="1" parent="WIyWlLk6GJQsqaUBKTNV-1">
          <mxGeometry x="2027.5" y="707.5" width="120" height="60" as="geometry" />
        </mxCell>
        <mxCell id="CHRmbYXMk_RVhMR8-_uH-7" value="View zeigt angepassten Text an" style="rounded=1;whiteSpace=wrap;html=1;" vertex="1" parent="WIyWlLk6GJQsqaUBKTNV-1">
          <mxGeometry x="2027.5" y="805" width="120" height="60" as="geometry" />
        </mxCell>
        <mxCell id="CHRmbYXMk_RVhMR8-_uH-10" value="&lt;span style=&quot;font-size: 21px&quot;&gt;&lt;u&gt;Wechseln der Sprache&lt;/u&gt;&lt;/span&gt;" style="text;html=1;strokeColor=none;fillColor=none;align=center;verticalAlign=middle;whiteSpace=wrap;rounded=0;" vertex="1" parent="WIyWlLk6GJQsqaUBKTNV-1">
          <mxGeometry x="1962.5" y="325" width="205" height="20" as="geometry" />
        </mxCell>
        <mxCell id="CHRmbYXMk_RVhMR8-_uH-11" value="&lt;span style=&quot;font-size: 21px&quot;&gt;&lt;u&gt;Model in DB speichern&lt;/u&gt;&lt;/span&gt;" style="text;html=1;strokeColor=none;fillColor=none;align=center;verticalAlign=middle;whiteSpace=wrap;rounded=0;" vertex="1" parent="WIyWlLk6GJQsqaUBKTNV-1">
          <mxGeometry x="1206.25" y="3940" width="223.75" height="20" as="geometry" />
        </mxCell>
      </root>
    </mxGraphModel>
  </diagram>
</mxfile>
